<svg width="763" height="129" viewBox="0 0 763 129" fill="none" xmlns="http://www.w3.org/2000/svg"><path d="M0 88.524c0-3.329 1.61-7.463 5.604-18.504 1.72-4.938 4.134-7.046 6.658-6.935 3.052.139 4.522 1.997 5.326 5.187 3.33 14.787 5.05 22.777 12.928 22.777 6.131 0 8.267-5.993 8.267-13.317l-.139-53.403c.14-9.598-8.794-7.185-8.794-13.177 0-2.386 1.998-4.66 6.131-4.66 3.856 0 7.185.388 16.923.388 9.182 0 12.511-.389 16.118-.389 4.133 0 5.853 2.275 5.853 4.661 0 5.992-7.601 3.607-7.712 13.177l.139 54.347c0 15.036-9.71 25.689-33.152 25.689C16.395 104.392 0 96.514 0 88.525Z" fill="#000"/><path d="m147.572 64.606 3.488-3.204c1.874-1.722 1.329-4.774-1.003-5.755l-4.381-1.808 2.18-4.207c1.155-2.245-.392-4.947-2.921-5.056l-4.729-.218.61-4.686c.327-2.507-2.049-4.512-4.468-3.75l-4.512 1.417-1.024-4.62c-.545-2.463-3.487-3.531-5.493-2.005l-3.748 2.877-2.551-3.989c-1.351-2.136-4.468-2.136-5.841 0l-2.55 3.989-3.749-2.877c-2.005-1.548-4.947-.48-5.492 2.005l-1.024 4.62-4.512-1.416c-2.42-.763-4.795 1.242-4.468 3.748l.61 4.687-4.73.218c-2.528.108-4.075 2.811-2.92 5.056l2.18 4.207-4.381 1.809c-2.332.958-2.877 4.032-1.025 5.754l3.488 3.204-3.488 3.203c-1.852 1.722-1.33 4.774 1.025 5.754l4.38 1.81-2.18 4.206c-1.176 2.245.393 4.948 2.921 5.056l4.73.218-.61 4.686c-.327 2.507 2.07 4.512 4.468 3.75l4.512-1.417 1.024 4.62c.545 2.463 3.487 3.531 5.492 2.005l3.749-2.877 2.55 3.989c1.352 2.136 4.468 2.136 5.841 0l2.551-3.989 3.748 2.877c2.006 1.548 4.926.48 5.493-2.005l1.024-4.62 4.512 1.416c2.419.763 4.795-1.242 4.468-3.749l-.61-4.686 4.729-.218c2.529-.109 4.076-2.811 2.921-5.056l-2.18-4.207 4.381-1.809c2.332-.959 2.877-4.032 1.003-5.754l-3.488-3.203Z" fill="#FD7E14"/><path d="M245.733 98.4c0 2.386-2.136 4.134-5.715 4.134-3.329 0-6.269-.389-14.37-.389-8.267 0-11.319.389-14.648.389-4.272 0-5.992-2.136-5.992-4.383 0-5.05 6.935-4.273 6.935-9.46 0-2.525-.277-3.718-.388-4.938l-2.386-17.173c-1.47-10.791-5.049-14.37-10.375-14.37-4.272 0-9.46 3.19-9.46 16.257v17.172c0 9.183 7.462 6.936 7.462 12.65 0 2.136-1.609 4.384-5.603 4.384-3.329 0-6.659-.389-14.787-.389s-11.319.389-14.648.389c-3.994 0-5.603-2.137-5.603-4.384 0-5.715 7.323-3.467 7.323-12.65V27.05c0-8.656-8.267-5.466-8.267-11.985 0-3.468 4.134-5.465 15.314-10.265C180.789.416 182.648 0 184.229 0c3.995 0 5.049 3.19 5.049 7.601v39.005h.139c3.995-7.046 12.123-13.316 22.637-13.316 12.124 0 20.113 8.933 22.249 25.828l3.191 24.773c1.442 11.43 8.239 8.517 8.239 14.51Zm100.259 0c0 2.386-2.136 4.134-5.715 4.134-3.329 0-6.27-.388-14.37-.388-8.267 0-11.319.388-14.648.388-4.272 0-5.992-2.136-5.992-4.383 0-5.05 6.796-4.134 6.796-10.514 0-1.72-.277-4.134-.804-7.713L309.4 66.608c-1.47-10.791-5.049-14.37-10.375-14.37-4.272 0-9.46 3.19-9.46 16.257v17.172c0 9.183 7.462 6.935 7.462 12.65 0 2.136-1.609 4.383-5.604 4.383-3.329 0-6.658-.388-14.786-.388s-11.319.388-14.648.388c-3.995 0-5.603-2.136-5.603-4.383 0-5.715 7.323-3.467 7.323-12.65V60.893c0-8.655-8.267-5.465-8.267-11.984 0-3.468 4.134-5.465 15.314-10.264 10.264-4.384 12.123-4.8 13.704-4.8 3.995 0 5.049 3.19 5.049 7.601v5.188h.139c3.995-7.046 12.123-13.316 22.637-13.316 12.123 0 20.113 8.933 22.249 25.828l3.191 24.773c1.47 11.402 8.267 8.49 8.267 14.481Zm100.287 0c0 2.386-2.136 4.134-5.715 4.134-3.329 0-6.27-.388-14.37-.388-8.267 0-11.319.388-14.648.388-4.272 0-5.992-2.136-5.992-4.383 0-5.05 6.797-4.134 6.797-10.514 0-1.72-.278-4.134-.805-7.713l-1.859-13.316c-1.47-10.791-5.049-14.37-10.375-14.37-4.272 0-9.46 3.19-9.46 16.257v17.172c0 9.183 7.462 6.935 7.462 12.65 0 2.136-1.609 4.383-5.603 4.383-3.329 0-6.659-.388-14.787-.388s-11.318.388-14.647.388c-3.995 0-5.604-2.136-5.604-4.383 0-5.715 7.324-3.467 7.324-12.65V60.893c0-8.655-8.268-5.465-8.268-11.984 0-3.468 4.134-5.465 15.314-10.264 10.264-4.384 12.123-4.8 13.704-4.8 3.995 0 5.049 3.19 5.049 7.601v5.188h.139c3.995-7.046 12.123-13.316 22.638-13.316 12.123 0 20.112 8.933 22.248 25.828l3.191 24.773c1.47 11.402 8.267 8.49 8.267 14.481Zm88.135-59.672c0 5.188-6.131 3.606-11.845 16.783l-20.779 48.604c-6.519 15.453-16.118 24.247-28.907 24.247-5.715 0-10.514-1.471-12.262-3.607-2.802-3.467-6.131-14.259-6.131-20.501 0-3.329 1.998-5.715 4.383-5.715 1.471 0 2.802.527 4.134 2.275 5.992 7.712 9.321 10.514 14.37 10.514 3.468 0 5.854-3.051 7.851-7.185l-24.912-48.604c-6.658-13.038-12.123-11.596-12.123-16.784 0-2.663 2.274-4.272 5.049-4.272 3.467 0 8.378.389 16.783.389 8.129 0 12.262-.389 16.257-.389 4.273 0 6.27 1.72 6.27 4.273 0 5.326-5.715 4.272-5.715 10.375 0 2.663.943 5.049 2.386 8.794l9.848 21.167 8.656-21.167c1.609-4.272 2.385-6.658 2.385-9.044 0-5.188-5.992-4.8-5.992-10.126 0-2.524 1.859-4.272 6.131-4.272 2.802 0 5.992.389 9.599.389 3.329 0 7.046-.389 9.46-.389 2.968-.027 5.104 1.72 5.104 4.245Zm67.108 59.256c0-6.797 9.849-3.606 9.849-13.177v-58.73c0-4.522-1.72-6.658-5.993-6.658h-1.331c-6.936 0-12.262 6.52-21.029 16.368-2.136 2.386-3.717 3.856-6.131 3.856-2.524 0-4.799-1.997-4.799-5.604 0-3.051 1.193-5.465 3.052-10.264l5.187-13.316c1.998-5.05 4.134-7.047 7.463-7.047 3.995 0 4.938 3.468 11.457 3.468h52.738c6.519 0 7.462-3.468 11.457-3.468 3.329 0 5.465 1.998 7.463 7.047l5.187 13.316c1.859 4.8 3.052 7.185 3.052 10.264 0 3.607-2.275 5.604-4.799 5.604-2.386 0-3.995-1.47-6.131-3.856-8.795-9.848-14.121-16.368-21.029-16.368h-1.331c-4.273 0-5.993 2.136-5.993 6.658v58.73c0 9.599 9.849 6.38 9.849 13.177 0 2.386-1.72 4.661-5.854 4.661-3.995 0-8.128-.389-18.254-.389-9.987 0-14.37.389-18.254.389-4.078 0-5.826-2.247-5.826-4.66ZM678.09 69.77c0-21.693 17.976-37.811 43.943-37.811 25.966 0 40.475 15.979 40.475 35.565 0 22.249-18.781 37.701-43.804 37.701-26.105-.028-40.614-16.035-40.614-35.454Zm56.482 3.718c0-11.18-5.853-29.295-16.922-29.295-7.713 0-11.597 6.27-11.597 19.586 0 10.93 5.715 29.156 16.923 29.156 7.851 0 11.596-6.27 11.596-19.447Z" fill="#000"/></svg>