<svg width="628" height="392" viewBox="0 0 628 392" fill="none" xmlns="http://www.w3.org/2000/svg">
<path d="M724.447 391.036L755.819 362.23C772.575 346.829 767.726 319.236 746.693 310.537L707.334 294.209L727.013 256.42C737.495 236.241 723.448 211.999 700.775 211.001L658.28 209.076L663.77 166.866C666.693 144.335 645.303 126.295 623.556 133.14L582.986 145.903L573.717 104.335C568.797 82.0889 542.487 72.5347 524.376 86.367L490.58 112.249L467.692 76.3849C455.428 57.205 427.407 57.205 415.215 76.3849L392.327 112.249L358.531 86.367C340.492 72.5347 314.11 82.1602 309.191 104.335L299.993 145.903L259.351 133.14C237.676 126.295 216.214 144.335 219.138 166.866L224.628 209.076L182.132 211.001C159.387 211.999 145.412 236.241 155.894 256.42L175.573 294.209L136.215 310.537C115.181 319.236 110.332 346.829 127.088 362.23L158.46 391.036L127.088 419.77C110.332 435.171 115.181 462.764 136.215 471.463L175.573 487.791L155.894 525.58C145.412 545.759 159.387 570.001 182.132 570.999L224.628 572.924L219.138 615.134C216.214 637.665 237.676 655.704 259.351 648.859L299.993 636.097L309.262 677.665C314.182 699.911 340.492 709.465 358.602 695.633L392.399 669.751L415.286 705.615C427.55 724.795 455.571 724.795 467.764 705.615L490.651 669.751L524.448 695.633C542.487 709.465 568.797 699.84 573.788 677.665L583.057 636.097L623.627 648.859C645.374 655.704 666.836 637.665 663.841 615.134L658.351 572.924L700.846 570.999C723.591 570.001 737.566 545.759 727.085 525.58L707.406 487.791L746.764 471.463C767.798 462.764 772.646 435.171 755.891 419.77L724.447 391.036Z" fill="#FD7E14"/>
<path d="M259.411 359.515L272.809 347.214C279.964 340.637 277.894 328.853 268.911 325.138L252.103 318.165L260.507 302.027C264.983 293.41 258.985 283.057 249.302 282.631L231.154 281.809L233.499 263.783C234.747 254.161 225.612 246.457 216.325 249.381L199 254.831L195.042 237.079C192.941 227.579 181.705 223.499 173.971 229.406L159.538 240.459L149.764 225.143C144.526 216.952 132.56 216.952 127.353 225.143L117.579 240.459L103.146 229.406C95.4424 223.499 84.1763 227.609 82.0753 237.079L78.1473 254.831L60.7914 249.381C51.5348 246.457 42.3696 254.161 43.618 263.783L45.9626 281.809L27.8149 282.631C18.1016 283.057 12.1336 293.41 16.6096 302.027L25.0136 318.165L8.20563 325.138C-0.77687 328.853 -2.84741 340.637 4.30814 347.214L17.7057 359.515L4.30814 371.786C-2.84741 378.363 -0.77687 390.147 8.20563 393.862L25.0136 400.835L16.6096 416.973C12.1336 425.59 18.1016 435.943 27.8149 436.369L45.9626 437.191L43.618 455.217C42.3696 464.839 51.5348 472.542 60.7914 469.619L78.1473 464.169L82.1058 481.921C84.2068 491.421 95.4424 495.501 103.177 489.594L117.609 478.541L127.384 493.857C132.621 502.048 144.587 502.048 149.794 493.857L159.568 478.541L174.001 489.594C181.705 495.501 192.941 491.39 195.072 481.921L199.03 464.169L216.356 469.619C225.643 472.542 234.808 464.839 233.529 455.217L231.185 437.191L249.332 436.369C259.046 435.943 265.014 425.59 260.538 416.973L252.134 400.835L268.942 393.862C277.924 390.147 279.995 378.363 272.839 371.786L259.411 359.515Z" fill="#479F76"/>
<path d="M587.953 79.5999L595.542 72.6312C599.596 68.9055 598.423 62.2301 593.334 60.1257L583.813 56.1757L588.574 47.0337C591.109 42.1523 587.711 36.2876 582.226 36.0461L571.946 35.5804L573.274 25.369C573.981 19.9183 568.806 15.5543 563.545 17.2102L553.731 20.2978L551.488 10.2416C550.298 4.85988 543.933 2.54853 539.552 5.89484L531.376 12.1562L525.839 3.47999C522.872 -1.16 516.093 -1.16 513.144 3.47999L507.607 12.1562L499.431 5.89484C495.067 2.54853 488.685 4.87713 487.494 10.2416L485.269 20.2978L475.437 17.2102C470.194 15.5543 465.002 19.9183 465.709 25.369L467.037 35.5804L456.757 36.0461C451.254 36.2876 447.874 42.1523 450.409 47.0337L455.17 56.1757L445.648 60.1257C440.56 62.2301 439.387 68.9055 443.44 72.6312L451.03 79.5999L443.44 86.5512C439.387 90.277 440.56 96.9524 445.648 99.0567L455.17 103.007L450.409 112.149C447.874 117.03 451.254 122.895 456.757 123.136L467.037 123.602L465.709 133.813C465.002 139.264 470.194 143.628 475.437 141.972L485.269 138.885L487.512 148.941C488.702 154.323 495.067 156.634 499.448 153.288L507.624 147.026L513.161 155.702C516.128 160.342 522.907 160.342 525.856 155.702L531.393 147.026L539.569 153.288C543.933 156.634 550.298 154.305 551.505 148.941L553.748 138.885L563.563 141.972C568.823 143.628 574.015 139.264 573.291 133.813L571.963 123.602L582.243 123.136C587.746 122.895 591.126 117.03 588.591 112.149L583.83 103.007L593.352 99.0567C598.44 96.9524 599.613 90.277 595.56 86.5512L587.953 79.5999Z" fill="#7C6C77"/>
</svg>
