<svg width="276" height="50" viewBox="0 0 276 50" fill="none" xmlns="http://www.w3.org/2000/svg"><path d="M0 24.63C0 9.47 10.64.24 21.09.24c4.22 0 7.89 1.53 9.66 1.53 1.53 0 2.14-1.77 3.61-1.77 1.41 0 2.26.98 3.18 3.42l2.45 6.66c.98 2.63 1.47 4.16 1.47 5.2 0 1.77-1.16 2.57-2.38 2.57-1.16 0-1.83-.55-2.69-1.71-4.58-6.42-8.01-9.96-12.1-9.96-5.87 0-10.27 6.3-10.27 15.59 0 11.06 5.75 16.44 12.47 16.44 4.58 0 7.82-2.51 9.9-5.2.79-1.04 1.65-1.9 2.87-1.9 1.41 0 2.32 1.1 2.32 2.38 0 .92-.43 2.02-1.1 3.3-2.14 4.16-8.37 9.9-19.01 9.9C10.02 46.7 0 38.32 0 24.63Z" fill="#000"/><path d="M84.78 31.79c.98.9.7 2.52-.53 3.03l-2.31.96L83.09 38c.61 1.18-.21 2.6-1.54 2.66l-2.49.11.32 2.47a1.828 1.828 0 0 1-2.36 1.98l-2.38-.75-.54 2.44a1.824 1.824 0 0 1-2.89 1.05l-1.98-1.52-1.34 2.1a1.823 1.823 0 0 1-3.08 0l-1.34-2.1-1.98 1.52c-1.06.81-2.6.25-2.89-1.05l-.54-2.44-2.38.75c-1.27.4-2.53-.65-2.36-1.98l.32-2.47-2.49-.11A1.826 1.826 0 0 1 49.61 38l1.15-2.22-2.31-.96c-1.23-.51-1.52-2.13-.54-3.03l1.84-1.68-1.84-1.69c-.98-.9-.7-2.52.54-3.03l2.31-.96-1.15-2.22c-.62-1.18.2-2.6 1.54-2.66l2.49-.11-.32-2.47c-.17-1.32 1.09-2.38 2.36-1.98l2.38.75.54-2.44c.29-1.3 1.83-1.86 2.89-1.05l1.98 1.52 1.34-2.1a1.823 1.823 0 0 1 3.08 0l1.34 2.1 1.98-1.52c1.06-.81 2.6-.25 2.89 1.05l.54 2.44 2.38-.75c1.27-.4 2.53.65 2.36 1.98l-.32 2.47 2.49.11c1.33.06 2.15 1.48 1.54 2.66l-1.15 2.22 2.31.96c1.23.51 1.52 2.13.53 3.03l-1.84 1.69 1.84 1.68Z" fill="#FD7E14"/><path d="M133.37 43.58c0 1.1-.98 1.89-2.63 1.89-1.53 0-2.87-.18-6.6-.18-3.79 0-5.2.18-6.72.18-1.96 0-2.75-.98-2.75-2.02 0-2.32 3.12-1.89 3.12-4.83 0-.79-.12-1.89-.37-3.54l-.86-6.11c-.67-4.95-2.32-6.6-4.77-6.6-1.96 0-4.34 1.47-4.34 7.46v7.89c0 4.22 3.42 3.18 3.42 5.81 0 .98-.73 2.02-2.57 2.02-1.53 0-3.06-.18-6.79-.18s-5.2.18-6.72.18c-1.83 0-2.57-.98-2.57-2.02 0-2.63 3.36-1.59 3.36-5.81V26.35c0-3.97-3.79-2.51-3.79-5.5 0-1.59 1.9-2.51 7.03-4.71 4.71-2.02 5.56-2.2 6.3-2.2 1.83 0 2.32 1.47 2.32 3.48v2.38h.06c1.83-3.24 5.56-6.11 10.39-6.11 5.56 0 9.23 4.1 10.21 11.86l1.47 11.37c.68 5.25 3.8 3.91 3.8 6.66Zm29.95-4.65c0 1.16-.86 2.51-1.71 3.36-2.14 2.14-5.2 3.91-10.27 3.91-5.5 0-9.96-3.3-9.96-7.27 0-1.28.24-5.99.24-10.21v-8.8h-2.63c-1.53 0-2.63-.92-2.63-2.26 0-1.47.92-2.2 2.44-3.12 4.1-2.45 6.3-4.22 8.74-7.46 2.02-2.69 2.75-3.91 4.1-3.91 1.16 0 1.83.73 1.83 2.63v8.62h7.33c1.16 0 1.83.55 1.83 1.9 0 .49-.12 1.34-.18 1.77-.18 1.22-.73 1.83-1.96 1.83h-7.03v13.45c0 4.83 1.47 5.93 3.24 5.93.73 0 1.47-.18 2.87-1.34.43-.37 1.04-.92 1.9-.92 1.24 0 1.85.91 1.85 1.89Zm44.26 1.16c0 2.08-3.18 5.75-9.47 5.75-2.87 0-5.5-1.35-7.15-3.85-2.2 1.83-6.17 4.1-11.49 4.1-7.03 0-11.25-3.97-11.25-9.66 0-5.62 4.58-10.15 13.14-10.15 2.87 0 5.13.37 6.66.79l-.06-.61c-.55-3.97-2.93-5.99-5.99-5.99-2.69 0-4.71.79-6.42 1.53-1.1.49-2.14 1.04-2.93 1.04-.86 0-1.83-.73-1.83-2.02 0-1.53 1.53-3.06 2.63-3.91 2.75-2.14 6.79-3.61 12.35-3.61 7.46 0 12.78 2.87 13.75 10.15l1.34 9.84c.49 3.61 1.9 4.46 5.44 5.13.66.13 1.28.62 1.28 1.47Zm-18.04-2.07-.92-6.54c-.73-.18-1.77-.31-3.06-.31-2.93 0-5.26 1.1-5.26 3.91 0 2.87 2.02 4.46 4.52 4.46 1.85 0 3.68-.79 4.72-1.52Zm21.4-7.46c0-10.82 8.8-17.42 18.03-17.42 7.95 0 13.94 4.95 13.94 8.56 0 1.65-1.22 3.85-5.01 6.36-1.16.79-1.83.92-2.38.92-1.35 0-2.14-1.04-2.38-2.2-.67-3.36-1.53-8.99-5.44-8.99-2.87 0-4.52 3-4.52 7.76 0 8.62 5.44 13.33 10.51 13.33 3.73 0 6.11-1.9 7.89-3.18.67-.49 1.04-.67 1.53-.67.98 0 1.53.92 1.53 1.65 0 .55-.18 1.16-.49 1.9-1.47 3.36-6.6 8.13-15.83 8.13-9.93-.01-17.38-6.25-17.38-16.15Zm64.18 8.37c0 1.16-.86 2.51-1.71 3.36-2.14 2.14-5.2 3.91-10.27 3.91-5.5 0-9.96-3.3-9.96-7.27 0-1.28.24-5.99.24-10.21v-8.8h-2.63c-1.53 0-2.63-.92-2.63-2.26 0-1.47.92-2.2 2.45-3.12 4.1-2.45 6.3-4.22 8.74-7.46 2.02-2.69 2.75-3.91 4.1-3.91 1.16 0 1.83.73 1.83 2.63v8.62h7.34c1.16 0 1.83.55 1.83 1.9 0 .49-.12 1.34-.18 1.77-.18 1.22-.73 1.83-1.96 1.83h-7.03v13.45c0 4.83 1.47 5.93 3.24 5.93.73 0 1.47-.18 2.87-1.34.43-.37 1.04-.92 1.9-.92 1.22 0 1.83.91 1.83 1.89Z" fill="#000"/></svg>