<svg width="360" height="296" viewBox="0 0 360 296" fill="none" xmlns="http://www.w3.org/2000/svg">
<path d="M273.368 23.1055V47.5954H273.209C251.56 47.5954 234.004 65.1512 234.004 86.8004V158.876C234.004 176.679 219.571 191.112 201.768 191.112H127.884C126.852 191.209 125.811 191.262 124.761 191.262C106.014 191.262 90.8226 176.07 90.8226 157.324C90.8226 145.387 96.9803 134.898 106.296 128.855C103.032 132.913 101.074 138.083 101.074 143.685C101.074 156.777 111.678 167.381 124.752 167.381C137.844 167.381 148.448 156.777 148.448 143.685V132.737L147.16 131.819C147.16 131.819 147.16 131.819 147.151 131.819L143.552 129.261L141.479 127.788L132.215 121.206L130.777 120.192L134.933 117.245C134.933 117.245 134.933 117.245 134.941 117.245L148.439 107.638L130.769 95.0931L139.935 88.5736L148.439 82.5394L130.769 69.9945L148.439 57.4319V55.3588C148.439 37.5559 162.872 23.1231 180.675 23.1231H273.368V23.1055Z" stroke="white" stroke-width="5" stroke-miterlimit="10" stroke-linecap="round" stroke-linejoin="round"/>
<path d="M233.183 93.8932C229.69 91.9788 224.9 93.3727 222.835 96.9103C221.618 98.9923 221.335 101.524 221.124 103.959C219.412 123.712 220.55 144.108 214.384 162.855C212.99 167.089 211.225 171.218 208.738 174.844C202.845 183.454 193.334 188.633 183.586 191.262" stroke="white" stroke-width="5" stroke-miterlimit="10" stroke-linecap="round" stroke-linejoin="round"/>
<path d="M234.004 106.773C237.709 103.8 242.447 101.824 247.422 101.163C248.543 101.013 249.742 100.942 250.748 101.392C252.407 102.133 252.927 104.003 252.865 105.635C252.707 109.985 249.839 113.893 246.716 117.289C242.976 121.356 238.706 125.053 234.022 128.29" stroke="white" stroke-width="5" stroke-miterlimit="10" stroke-linecap="round"/>
<path d="M192.17 105.009C195.875 102.036 200.613 100.06 205.588 99.3983C206.709 99.2483 207.908 99.1777 208.914 99.6277C210.573 100.369 211.093 102.239 211.031 103.871C210.873 108.22 208.005 112.128 204.882 115.525C201.142 119.592 196.872 123.288 192.188 126.526" stroke="white" stroke-width="5" stroke-miterlimit="10" stroke-linecap="round"/>
<path d="M189.038 43.4138C186.453 46.8368 182.051 49.2716 177.261 49.9245" stroke="white" stroke-width="5" stroke-miterlimit="10" stroke-linecap="round"/>
<path d="M273.368 23.1055V47.5954H273.209C251.56 47.5954 234.004 65.1512 234.004 86.8004V158.876C234.004 176.679 219.571 191.112 201.768 191.112H127.884C126.852 191.209 125.811 191.262 124.761 191.262C106.014 191.262 90.8226 176.07 90.8226 157.324C90.8226 145.387 96.9803 134.898 106.296 128.855C103.032 132.913 101.074 138.083 101.074 143.685C101.074 156.777 111.678 167.381 124.752 167.381C137.844 167.381 148.448 156.777 148.448 143.685V132.737L147.16 131.819C147.16 131.819 147.16 131.819 147.151 131.819L143.552 129.261L141.479 127.788L132.215 121.206L130.777 120.192L134.933 117.245C134.933 117.245 134.933 117.245 134.941 117.245L148.439 107.638L130.769 95.0931L139.935 88.5736L148.439 82.5394L130.769 69.9945L148.439 57.4319V55.3588C148.439 37.5559 162.872 23.1231 180.675 23.1231H273.368V23.1055Z" stroke="white" stroke-width="5" stroke-miterlimit="10" stroke-linecap="round" stroke-linejoin="round"/>
<path d="M233.183 93.8932C229.69 91.9788 224.9 93.3727 222.835 96.9103C221.618 98.9923 221.335 101.524 221.124 103.959C219.412 123.712 220.55 144.108 214.384 162.855C212.99 167.089 211.225 171.218 208.738 174.844C202.845 183.454 193.334 188.633 183.586 191.262" stroke="white" stroke-width="5" stroke-miterlimit="10" stroke-linecap="round" stroke-linejoin="round"/>
<path d="M234.004 106.773C237.709 103.8 242.447 101.824 247.422 101.163C248.543 101.013 249.742 100.942 250.748 101.392C252.407 102.133 252.927 104.003 252.865 105.635C252.707 109.985 249.839 113.893 246.716 117.289C242.976 121.356 238.706 125.053 234.022 128.29" stroke="white" stroke-width="5" stroke-miterlimit="10" stroke-linecap="round"/>
<path d="M192.17 105.009C195.875 102.036 200.613 100.06 205.588 99.3983C206.709 99.2483 207.908 99.1777 208.914 99.6277C210.573 100.369 211.093 102.239 211.031 103.871C210.873 108.22 208.005 112.128 204.882 115.525C201.142 119.592 196.872 123.288 192.188 126.526" stroke="white" stroke-width="5" stroke-miterlimit="10" stroke-linecap="round"/>
<path d="M189.038 43.4138C186.453 46.8368 182.051 49.2716 177.261 49.9245" stroke="white" stroke-width="5" stroke-miterlimit="10" stroke-linecap="round"/>
<path d="M148.448 55.3501V132.737" stroke="white" stroke-width="5" stroke-miterlimit="10" stroke-linecap="round"/>
<path d="M165.483 40.3348C154.015 27.9928 142.661 15.5449 131.422 3" stroke="white" stroke-width="5" stroke-miterlimit="10" stroke-linecap="round"/>
<path d="M153.926 27.8518C156.988 24.6847 157.649 19.462 155.479 15.6245C154.791 14.4158 153.874 13.366 152.965 12.3162C151.509 10.6577 150.062 8.99029 148.607 7.33175C147.998 6.63481 147.398 5.9467 146.789 5.24976" stroke="white" stroke-width="5" stroke-miterlimit="10" stroke-linecap="round"/>
<path d="M250.263 42.3552C248.507 42.1081 246.805 43.3168 245.94 44.8606C245.076 46.4045 244.873 48.2218 244.714 49.9862C243.849 59.5934 243.832 69.2799 244.652 78.8959" stroke="white" stroke-width="5" stroke-miterlimit="10" stroke-linecap="round"/>
<path d="M265.066 48.5923C265.957 52.3064 265.895 56.1792 265.825 59.9992C265.71 66.2099 265.596 72.4117 265.481 78.6224" stroke="white" stroke-width="5" stroke-miterlimit="10" stroke-linecap="round"/>
<path d="M0 242.95C0 241.424 0.732222 239.545 2.55838 234.49C3.35236 232.24 4.44629 231.261 5.60198 231.323C7.00468 231.384 7.67515 232.24 8.03685 233.696C9.56306 240.454 10.3482 244.106 13.9388 244.106C16.7354 244.106 17.7146 241.371 17.7146 238.019L17.6528 213.608C17.7146 209.224 13.6388 210.318 13.6388 207.583C13.6388 206.489 14.5475 205.448 16.4354 205.448C18.1998 205.448 19.726 205.633 24.1635 205.633C28.3628 205.633 29.889 205.448 31.5299 205.448C33.4178 205.448 34.2118 206.48 34.2118 207.583C34.2118 210.318 30.7447 209.224 30.683 213.608L30.7447 238.442C30.7447 245.323 26.2984 250.193 15.5885 250.193C7.48107 250.193 0 246.602 0 242.95Z" fill="white"/>
<path d="M38.6492 234.366C38.6492 224.441 46.8714 217.075 58.737 217.075C70.6026 217.075 77.2456 224.38 77.2456 233.325C77.2456 243.488 68.6617 250.555 57.2196 250.555C45.2834 250.563 38.6492 243.259 38.6492 234.366ZM64.4625 236.069C64.4625 230.952 61.7806 222.677 56.7344 222.677C53.2056 222.677 51.4412 225.535 51.4412 231.622C51.4412 236.616 54.0613 244.953 59.1692 244.953C62.7598 244.961 64.4625 242.094 64.4625 236.069Z" fill="white"/>
<path d="M123.746 247.458C123.746 248.552 122.776 249.346 121.126 249.346C119.609 249.346 118.268 249.161 114.554 249.161C110.778 249.161 109.384 249.346 107.858 249.346C105.908 249.346 105.123 248.376 105.123 247.335C105.123 245.023 108.29 245.385 108.29 243.012C108.29 241.856 108.167 241.309 108.105 240.762L107.011 232.911C106.341 227.979 104.7 226.338 102.265 226.338C100.315 226.338 97.942 227.803 97.942 233.766V241.618C97.942 245.817 101.347 244.785 101.347 247.405C101.347 248.376 100.615 249.417 98.7889 249.417C97.2715 249.417 95.7453 249.231 92.0312 249.231C88.3172 249.231 86.8527 249.417 85.3353 249.417C83.5092 249.417 82.7769 248.446 82.7769 247.405C82.7769 244.785 86.1205 245.826 86.1205 241.618V214.834C86.1205 210.882 82.3447 212.338 82.3447 209.356C82.3447 207.777 84.2326 206.859 89.3493 204.671C94.0338 202.66 94.8896 202.483 95.6218 202.483C97.4479 202.483 97.9332 203.948 97.9332 205.95V223.789H97.9949C99.8211 220.56 103.535 217.701 108.343 217.701C113.883 217.701 117.536 221.777 118.506 229.514L119.971 240.833C120.65 246.055 123.746 244.714 123.746 247.458Z" fill="white"/>
<path d="M169.586 247.458C169.586 248.552 168.615 249.346 166.965 249.346C165.448 249.346 164.107 249.16 160.393 249.16C156.617 249.16 155.215 249.346 153.697 249.346C151.747 249.346 150.953 248.375 150.953 247.334C150.953 245.023 154.059 245.446 154.059 242.526C154.059 241.732 153.935 240.638 153.697 238.998L152.841 232.91C152.171 227.979 150.53 226.338 148.095 226.338C146.145 226.338 143.772 227.802 143.772 233.766V241.618C143.772 245.817 147.178 244.785 147.178 247.405C147.178 248.375 146.445 249.416 144.619 249.416C143.102 249.416 141.576 249.231 137.862 249.231C134.148 249.231 132.692 249.416 131.166 249.416C129.34 249.416 128.607 248.446 128.607 247.405C128.607 244.785 131.951 245.826 131.951 241.618V230.299C131.951 226.338 128.175 227.802 128.175 224.821C128.175 223.241 130.063 222.324 135.18 220.136C139.864 218.125 140.72 217.948 141.452 217.948C143.278 217.948 143.764 219.413 143.764 221.415V223.788H143.825C145.651 220.56 149.366 217.701 154.174 217.701C159.714 217.701 163.366 221.777 164.336 229.514L165.801 240.832C166.48 246.055 169.586 244.714 169.586 247.458Z" fill="white"/>
<path d="M215.425 247.458C215.425 248.552 214.454 249.346 212.805 249.346C211.287 249.346 209.946 249.16 206.232 249.16C202.456 249.16 201.054 249.346 199.536 249.346C197.587 249.346 196.802 248.375 196.802 247.334C196.802 245.023 199.907 245.446 199.907 242.526C199.907 241.732 199.783 240.638 199.545 238.998L198.689 232.91C198.019 227.979 196.378 226.338 193.943 226.338C191.994 226.338 189.62 227.802 189.62 233.766V241.618C189.62 245.817 193.026 244.785 193.026 247.405C193.026 248.375 192.293 249.416 190.467 249.416C188.95 249.416 187.424 249.231 183.71 249.231C179.996 249.231 178.54 249.416 177.014 249.416C175.188 249.416 174.455 248.446 174.455 247.405C174.455 244.785 177.799 245.826 177.799 241.618V230.299C177.799 226.338 174.023 227.802 174.023 224.821C174.023 223.241 175.911 222.324 181.028 220.136C185.712 218.125 186.568 217.948 187.3 217.948C189.126 217.948 189.612 219.413 189.612 221.415V223.788H189.673C191.5 220.56 195.214 217.701 200.022 217.701C205.562 217.701 209.214 221.777 210.185 229.514L211.649 240.832C212.319 246.055 215.425 244.714 215.425 247.458Z" fill="white"/>
<path d="M255.724 220.18C255.724 222.554 252.927 221.821 250.307 227.847L240.815 250.069C237.833 257.127 233.448 261.15 227.608 261.15C224.988 261.15 222.8 260.479 222.006 259.509C220.727 257.93 219.209 252.998 219.209 250.131C219.209 248.605 220.127 247.511 221.221 247.511C221.891 247.511 222.5 247.758 223.109 248.543C225.844 252.072 227.37 253.351 229.681 253.351C231.26 253.351 232.363 251.948 233.272 250.061L221.891 227.838C218.848 221.874 216.351 222.545 216.351 220.172C216.351 218.954 217.383 218.222 218.662 218.222C220.242 218.222 222.5 218.407 226.329 218.407C230.043 218.407 231.931 218.222 233.757 218.222C235.707 218.222 236.615 219.016 236.615 220.172C236.615 222.606 233.995 222.121 233.995 224.918C233.995 226.135 234.419 227.229 235.089 228.932L239.597 238.61L243.549 228.932C244.282 226.982 244.643 225.888 244.643 224.794C244.643 222.421 241.908 222.606 241.908 220.172C241.908 219.016 242.764 218.222 244.705 218.222C245.984 218.222 247.44 218.407 249.09 218.407C250.616 218.407 252.318 218.222 253.412 218.222C254.744 218.24 255.724 219.025 255.724 220.18Z" fill="white"/>
<path d="M286.398 247.273C286.398 244.167 290.906 245.632 290.906 241.247V214.402C290.906 212.329 290.112 211.358 288.162 211.358H287.554C284.386 211.358 281.952 214.34 277.938 218.848C276.967 219.942 276.235 220.613 275.141 220.613C273.985 220.613 272.953 219.695 272.953 218.054C272.953 216.652 273.5 215.558 274.356 213.37L276.729 207.283C277.646 204.971 278.617 204.054 280.134 204.054C281.96 204.054 282.384 205.633 285.366 205.633H309.467C312.449 205.633 312.873 204.054 314.699 204.054C316.216 204.054 317.196 204.971 318.104 207.283L320.477 213.37C321.333 215.558 321.88 216.66 321.88 218.054C321.88 219.695 320.848 220.613 319.692 220.613C318.598 220.613 317.866 219.942 316.896 218.848C312.882 214.34 310.447 211.358 307.28 211.358H306.671C304.721 211.358 303.927 212.329 303.927 214.402V241.247C303.927 245.632 308.435 244.167 308.435 247.273C308.435 248.367 307.641 249.408 305.753 249.408C303.927 249.408 302.039 249.222 297.417 249.222C292.856 249.222 290.844 249.408 289.08 249.408C287.192 249.399 286.398 248.367 286.398 247.273Z" fill="white"/>
<path d="M321.404 234.366C321.404 224.441 329.626 217.075 341.491 217.075C353.357 217.075 360 224.38 360 233.325C360 243.488 351.416 250.555 339.974 250.555C328.038 250.563 321.404 243.259 321.404 234.366ZM347.208 236.069C347.208 230.952 344.526 222.677 339.48 222.677C335.951 222.677 334.187 225.535 334.187 231.622C334.187 236.616 336.807 244.953 341.915 244.953C345.505 244.961 347.208 242.094 347.208 236.069Z" fill="white"/>
<path d="M86.5352 280.664C87.3115 276.438 90.7433 274.409 93.6545 274.947C94.8279 275.159 95.7718 275.777 96.2659 275.865C96.6893 275.944 96.954 275.477 97.3598 275.556C97.7479 275.627 97.942 275.944 98.0744 276.676L98.4184 278.661C98.5596 279.447 98.6125 279.896 98.5596 280.188C98.4714 280.682 98.1008 280.84 97.7656 280.779C97.4392 280.717 97.2804 280.532 97.1039 280.161C96.1512 278.141 95.3836 276.976 94.2368 276.765C92.6047 276.465 91.052 277.991 90.5756 280.585C90.011 283.664 91.3343 285.454 93.2134 285.798C94.4926 286.037 95.5248 285.498 96.2394 284.854C96.5129 284.607 96.7952 284.413 97.1392 284.475C97.5274 284.546 97.7303 284.899 97.6686 285.26C97.6244 285.516 97.448 285.798 97.1922 286.125C96.3805 287.175 94.3515 288.454 91.3873 287.916C88.1937 287.325 85.8294 284.475 86.5352 280.664Z" fill="white"/>
<path d="M99.8299 283.063C100.456 278.917 103.959 276.72 107.726 277.285C111.599 277.867 114.183 281.026 113.575 285.066C112.975 289.018 109.94 290.924 105.732 290.289C101.877 289.715 99.2124 287.139 99.8299 283.063ZM109.561 284.254C109.905 281.961 109.508 279.252 107.487 278.952C105.45 278.644 104.259 281.061 103.897 283.505C103.544 285.834 104.056 288.26 106.023 288.551C108.096 288.868 109.19 286.689 109.561 284.254Z" fill="white"/>
<path d="M117.509 291.559C116.327 291.418 115.886 291.418 115.418 291.365C114.889 291.303 114.695 290.986 114.73 290.677C114.819 289.901 115.78 290.333 115.93 289.098L116.856 281.29C117.006 280.055 115.974 280.241 116.062 279.473C116.098 279.164 116.354 278.9 116.892 278.961C117.359 279.014 117.783 279.12 118.965 279.261C120.015 279.385 121.1 279.376 122.141 279.5C125.961 279.949 129.163 282.587 128.669 286.742C128.254 290.218 125.511 292.609 121.356 292.115C120.076 291.956 118.797 291.718 117.509 291.559ZM120.862 290.368C122.979 290.624 124.258 289.363 124.629 286.248C125.008 283.037 123.72 281.396 121.85 281.176L121.488 281.132C120.853 281.052 120.597 281.29 120.535 281.837L119.635 289.398C119.574 289.945 119.759 290.236 120.403 290.307L120.862 290.368Z" fill="white"/>
<path d="M129.895 292.406C129.966 291.63 130.936 292.036 131.06 290.792L131.801 282.967C131.916 281.723 130.892 281.943 130.963 281.167C130.989 280.858 131.333 280.594 131.863 280.646C132.33 280.691 132.665 280.779 133.856 280.885C135.047 280.991 135.48 280.991 135.947 281.026C136.485 281.079 136.679 281.387 136.644 281.705C136.574 282.481 135.603 282.076 135.48 283.32L134.739 291.145C134.624 292.389 135.647 292.168 135.577 292.944C135.55 293.253 135.294 293.527 134.765 293.474C134.298 293.43 133.874 293.332 132.683 293.227C131.492 293.121 131.06 293.121 130.592 293.077C130.063 293.033 129.869 292.715 129.895 292.406Z" fill="white"/>
<path d="M151.298 282.834C151.245 283.61 150.177 283.222 150.08 284.466L149.392 293.862C149.348 294.497 148.88 294.726 148.448 294.691C147.813 294.647 147.557 294.312 147.213 293.835L141.32 285.869L140.896 291.674C140.808 292.882 142.237 292.574 142.167 293.482C142.14 293.879 141.814 294.064 141.276 294.02C140.738 293.985 140.297 293.897 139.829 293.862C139.397 293.826 138.911 293.844 138.426 293.809C137.888 293.773 137.685 293.456 137.712 293.147C137.765 292.371 138.832 292.759 138.929 291.515L139.503 283.672C139.591 282.428 138.479 282.658 138.541 281.881C138.567 281.537 138.894 281.299 139.432 281.343C139.9 281.378 140.358 281.467 140.773 281.493C141.293 281.528 141.69 281.511 142.123 281.537C142.555 281.573 142.837 281.749 143.173 282.19L147.813 288.489L148.122 284.307C148.21 283.099 146.781 283.407 146.851 282.499C146.878 282.19 147.204 281.917 147.742 281.961C148.28 281.996 148.722 282.084 149.189 282.119C149.621 282.155 150.107 282.137 150.592 282.172C151.121 282.217 151.324 282.525 151.298 282.834Z" fill="white"/>
<path d="M152.48 288.868C152.665 284.669 155.911 282.12 158.735 282.252C160.173 282.314 161.187 282.79 161.69 282.817C162.122 282.834 162.316 282.34 162.731 282.358C163.128 282.375 163.393 282.667 163.587 283.364L164.125 285.278C164.336 286.037 164.495 286.407 164.478 286.769C164.451 287.272 164.116 287.483 163.772 287.466C163.445 287.448 163.26 287.289 163.031 286.945C161.778 285.084 160.958 284.025 159.714 283.972C157.605 283.875 156.679 286.416 156.564 288.842C156.458 291.233 157.217 293.588 159.749 293.694C160.234 293.712 160.552 293.491 160.569 293.138L160.658 291.215C160.711 289.971 159.696 290.236 159.731 289.46C159.749 289.151 159.987 288.868 160.517 288.886L164.619 289.071C165.157 289.098 165.369 289.398 165.351 289.707C165.316 290.483 164.328 290.13 164.275 291.374L164.204 292.883C164.16 293.782 164.663 293.774 164.645 294.285C164.628 294.594 164.451 294.779 163.957 294.929C163.181 295.176 161.328 295.52 159.131 295.423C155.215 295.264 152.303 292.988 152.48 288.868Z" fill="white"/>
<path d="M186.877 295.123C186.877 295.45 186.665 295.679 186.092 295.67C185.818 295.67 185.333 295.608 184.31 295.6C183.269 295.591 182.925 295.635 182.58 295.635C181.786 295.626 181.698 295.335 181.619 295.106C181.487 294.744 181.451 294.726 181.195 294.497L180.816 294.162C179.316 295.256 177.578 295.794 176.061 295.776C173.467 295.75 171.976 294.267 171.994 292.327C172.012 290.686 173.185 289.459 174.747 288.771C174.023 287.986 173.547 287.06 173.556 286.063C173.573 284.193 175.32 282.808 177.79 282.834C180.075 282.852 181.434 284.043 181.416 285.392C181.407 286.601 180.498 287.616 178.911 288.348L181.725 290.818C182.448 289.786 182.942 288.489 182.951 287.042C182.96 286.054 182.827 285.728 182.43 285.516C182.254 285.428 182.069 285.304 182.069 285.031C182.069 284.775 182.245 284.581 182.457 284.431C182.995 284.016 183.463 283.884 183.798 283.893C184.521 283.902 184.707 285.057 184.689 286.328C184.671 288.613 184.01 290.492 182.995 291.974L184.645 293.412C185.836 294.417 186.886 294.373 186.877 295.123ZM179.44 292.962L175.849 289.812C175.585 290.209 175.443 290.695 175.435 291.241C175.417 292.838 176.396 293.535 177.543 293.544C178.099 293.553 178.761 293.35 179.44 292.962ZM176.599 285.366C176.599 285.816 176.917 286.46 177.772 287.333C178.399 286.822 178.716 286.213 178.725 285.648C178.734 284.951 178.284 284.431 177.649 284.422C177.111 284.413 176.608 284.793 176.599 285.366Z" fill="white"/>
<path d="M195.655 295.397C194.464 295.432 194.031 295.503 193.564 295.52C193.026 295.538 192.796 295.247 192.788 294.938C192.761 294.162 193.776 294.435 193.731 293.191L193.476 285.34C193.432 284.096 192.443 284.44 192.417 283.663C192.408 283.355 192.62 283.055 193.158 283.037C193.626 283.019 194.058 283.064 195.258 283.019C196.316 282.984 197.384 282.808 198.434 282.781C202.271 282.658 205.844 284.775 205.976 288.957C206.091 292.45 203.736 295.229 199.554 295.37C198.257 295.397 196.96 295.353 195.655 295.397ZM198.787 293.721C200.913 293.65 201.989 292.212 201.892 289.08C201.786 285.842 200.269 284.422 198.381 284.484L198.019 284.493C197.375 284.51 197.163 284.784 197.181 285.331L197.428 292.944C197.446 293.5 197.684 293.747 198.319 293.729L198.787 293.721Z" fill="white"/>
<path d="M219.854 290.509C219.88 290.942 219.748 291.259 219.474 291.938L218.742 293.835C218.468 294.514 218.213 294.788 217.78 294.814C217.26 294.85 217.128 294.4 216.281 294.453L210.987 294.77C209.796 294.841 209.364 294.92 208.897 294.947C208.358 294.982 208.12 294.7 208.103 294.391C208.058 293.615 209.073 293.862 209.002 292.618L208.526 284.766C208.447 283.522 207.467 283.893 207.423 283.116C207.406 282.808 207.609 282.499 208.147 282.464C208.597 282.437 209.029 282.464 210.246 282.384L214.86 282.102C215.707 282.049 215.787 281.599 216.298 281.564C216.731 281.537 217.039 281.775 217.375 282.419L218.239 284.104C218.574 284.74 218.768 285.04 218.786 285.472C218.813 285.904 218.521 286.186 218.204 286.204C217.886 286.222 217.692 286.045 217.375 285.754C216.087 284.546 215.293 283.716 213.855 283.796L213.043 283.849C212.408 283.884 212.196 284.157 212.231 284.713L212.372 287.077C212.39 287.422 212.522 287.554 212.955 287.527L213.387 287.501C214.375 287.439 214.349 286.213 215.09 286.169C215.487 286.142 215.742 286.372 215.778 286.928C215.804 287.342 215.778 287.757 215.804 288.171C215.831 288.586 215.91 289.001 215.928 289.415C215.963 289.971 215.734 290.227 215.337 290.253C214.596 290.298 214.463 289.071 213.484 289.133L213.052 289.159C212.619 289.186 212.505 289.336 212.531 289.68L212.681 292.221C212.716 292.777 212.955 293.024 213.599 292.979L214.931 292.9C216.422 292.812 217.251 291.912 218.424 290.395C218.68 290.051 218.874 289.865 219.192 289.848C219.501 289.839 219.827 290.077 219.854 290.509Z" fill="white"/>
<path d="M223.003 293.5L222.059 291.842C221.671 291.162 221.397 290.633 221.362 290.254C221.318 289.751 221.609 289.486 221.918 289.46C222.28 289.424 222.509 289.654 222.774 289.892C223.92 290.906 225.553 292.274 227.723 292.08C229.099 291.956 229.708 291.277 229.637 290.492C229.54 289.389 228.287 289.186 226.523 288.851C224.353 288.454 221.539 287.704 221.309 285.066C221.124 282.931 222.835 281.264 225.129 281.07C226.523 280.946 227.255 281.299 227.67 281.264C228.084 281.229 228.067 280.655 228.587 280.611C229.187 280.558 229.372 281.008 229.919 281.767L230.449 282.499C231.102 283.399 231.366 283.893 231.402 284.237C231.428 284.581 231.172 284.81 230.934 284.837C230.59 284.863 230.387 284.696 230.025 284.396C229.125 283.619 227.573 282.596 225.914 282.737C224.979 282.817 224.503 283.24 224.556 283.884C224.626 284.713 225.526 284.855 227.167 285.163C229.884 285.657 232.619 286.319 232.875 289.23C233.104 291.833 231.119 293.571 228.12 293.835C226.602 293.968 225.544 293.606 225.067 293.65C224.529 293.694 224.494 294.294 224 294.338C223.55 294.373 223.285 293.994 223.003 293.5Z" fill="white"/>
<path d="M235.001 292.327C234.913 291.55 235.945 291.753 235.813 290.509L234.966 282.693C234.833 281.458 233.863 281.873 233.783 281.096C233.748 280.788 234.03 280.461 234.56 280.399C235.027 280.346 235.371 280.364 236.562 280.232C237.753 280.099 238.177 280.002 238.636 279.958C239.174 279.896 239.43 280.17 239.456 280.479C239.544 281.255 238.503 281.052 238.644 282.296L239.491 290.112C239.624 291.347 240.594 290.933 240.673 291.709C240.709 292.018 240.515 292.336 239.985 292.397C239.518 292.45 239.086 292.441 237.895 292.574C236.704 292.706 236.28 292.803 235.813 292.856C235.292 292.909 235.036 292.644 235.001 292.327Z" fill="white"/>
<path d="M241.873 286.248C241.326 282.075 244.088 279.014 246.884 278.644C248.313 278.458 249.398 278.749 249.892 278.688C250.325 278.635 250.431 278.114 250.836 278.061C251.233 278.008 251.542 278.247 251.851 278.908L252.715 280.699C253.051 281.405 253.271 281.74 253.315 282.102C253.377 282.596 253.086 282.869 252.742 282.913C252.416 282.958 252.204 282.825 251.921 282.534C250.369 280.92 249.372 280.02 248.137 280.187C246.046 280.461 245.57 283.125 245.887 285.525C246.196 287.889 247.36 290.077 249.866 289.75C250.342 289.689 250.625 289.406 250.581 289.062L250.334 287.157C250.175 285.922 249.213 286.363 249.116 285.586C249.072 285.278 249.257 284.96 249.795 284.89L253.862 284.36C254.392 284.29 254.656 284.554 254.7 284.863C254.806 285.639 253.765 285.454 253.924 286.689L254.118 288.18C254.233 289.071 254.727 288.974 254.797 289.486C254.842 289.795 254.692 290.006 254.233 290.245C253.518 290.615 251.754 291.286 249.575 291.568C245.676 292.071 242.411 290.333 241.873 286.248Z" fill="white"/>
<path d="M268.066 276.376C268.189 277.144 267.06 277.011 267.263 278.247L268.772 287.545C268.877 288.18 268.472 288.507 268.039 288.577C267.404 288.683 267.087 288.418 266.637 288.03L259.059 281.643L259.994 287.386C260.188 288.586 261.502 287.951 261.652 288.851C261.714 289.248 261.44 289.495 260.911 289.583C260.382 289.671 259.932 289.689 259.464 289.768C259.041 289.839 258.564 289.962 258.088 290.042C257.559 290.13 257.285 289.874 257.241 289.565C257.118 288.798 258.247 288.93 258.044 287.695L256.782 279.932C256.58 278.696 255.556 279.182 255.433 278.414C255.38 278.07 255.644 277.77 256.174 277.673C256.632 277.603 257.109 277.576 257.515 277.505C258.026 277.426 258.415 277.311 258.838 277.241C259.261 277.17 259.579 277.276 260.011 277.629L265.993 282.675L265.322 278.538C265.128 277.338 263.814 277.973 263.664 277.073C263.611 276.764 263.875 276.429 264.405 276.332C264.934 276.244 265.384 276.226 265.851 276.147C266.275 276.076 266.751 275.953 267.228 275.873C267.748 275.82 268.013 276.067 268.066 276.376Z" fill="white"/>
</svg>
