<svg width="32" height="32" viewBox="0 0 32 32" fill="none" xmlns="http://www.w3.org/2000/svg"><rect width="32" height="32" rx="7" fill="#000"/><path fill-rule="evenodd" clip-rule="evenodd" d="M16 6C10.481 6 6 10.588 6 16.252c0 4.53 2.867 8.37 6.839 9.729.497.094.681-.22.681-.497 0-.246-.006-.888-.012-1.744-2.781.617-3.37-1.371-3.37-1.371-.455-1.184-1.112-1.498-1.112-1.498-.908-.636.068-.623.068-.623 1 .075 1.535 1.057 1.535 1.057.89 1.567 2.338 1.114 2.91.85.091-.661.35-1.114.632-1.372-2.223-.258-4.555-1.14-4.555-5.066 0-1.12.386-2.033 1.031-2.75-.104-.258-.448-1.303.098-2.713 0 0 .841-.277 2.75 1.051A9.483 9.483 0 0 1 16 10.96a9.52 9.52 0 0 1 2.505.346c1.909-1.328 2.75-1.05 2.75-1.05.546 1.409.202 2.454.098 2.711.638.718 1.025 1.63 1.025 2.75 0 3.94-2.339 4.802-4.567 5.06.356.315.681.944.681 1.9 0 1.373-.012 2.474-.012 2.814 0 .277.178.591.688.49C23.139 24.623 26 20.784 26 16.259 26 10.588 21.519 6 16 6Z" fill="#fff"/></svg>