<svg width="110" height="110" viewBox="0 0 110 110" fill="none" xmlns="http://www.w3.org/2000/svg"><path d="m102.96 55.006 5.318-4.816c2.84-2.574 2.018-7.187-1.547-8.641l-6.671-2.73 3.336-6.317c1.776-3.374-.605-7.426-4.448-7.593l-7.203-.322.93-7.056c.496-3.767-3.13-6.782-6.815-5.638l-6.877 2.133-1.57-6.949c-.835-3.719-5.294-5.316-8.364-3.003L63.321 8.4l-3.88-5.995c-2.078-3.207-6.828-3.207-8.894 0L46.667 8.4 40.94 4.074c-3.058-2.313-7.53-.704-8.363 3.003l-1.56 6.95-6.888-2.134c-3.674-1.145-7.311 1.871-6.816 5.638l.93 7.056-7.202.322c-3.855.167-6.224 4.22-4.448 7.593l3.336 6.317-6.671 2.73C-.308 43.003-1.13 47.616 1.71 50.19l5.317 4.816L1.71 59.81c-2.84 2.574-2.018 7.187 1.547 8.641l6.67 2.73-3.335 6.317c-1.776 3.373.593 7.426 4.448 7.593l7.203.322-.931 7.056c-.495 3.767 3.142 6.782 6.816 5.638l6.889-2.133 1.57 6.949c.835 3.719 5.294 5.316 8.364 3.003l5.728-4.326 3.88 5.995c2.078 3.207 6.828 3.207 8.894 0l3.88-5.995 5.728 4.326c3.058 2.313 7.517.704 8.363-3.003l1.571-6.95 6.877 2.134c3.686 1.144 7.323-1.871 6.816-5.638l-.93-7.056 7.202-.322c3.855-.167 6.224-4.22 4.448-7.593l-3.336-6.317 6.671-2.73c3.565-1.454 4.387-6.067 1.547-8.641l-5.33-4.804Z" fill="#FD7E14"/><g clip-path="url(#a)"><path d="M52.036 57.215c0 4.235-1.413 7.397-4.238 9.487-2.825 2.062-6.596 3.093-11.314 3.093-3.39 0-6.285-.53-8.687-1.588-2.373-1.087-4.166-2.452-5.381-4.096-1.186-1.644-1.78-3.302-1.78-4.974 0-.25.085-.46.255-.626a.94.94 0 0 1 .678-.293h9.576c.254 0 .466.084.636.25.197.168.339.39.423.67.537 1.671 1.893 2.507 4.068 2.507 1.328 0 2.373-.306 3.136-.92.791-.612 1.186-1.49 1.186-2.632v-9.404H25.128c-.31 0-.58-.111-.805-.334a1.078 1.078 0 0 1-.34-.794V41.25c0-.306.114-.571.34-.794.226-.223.494-.334.805-.334h25.764c.31 0 .579.111.805.334.225.223.339.487.339.794v15.965Zm36.086-17.093c.31 0 .579.111.805.334.226.223.339.487.339.794v6.729c0 .306-.113.57-.339.794a1.107 1.107 0 0 1-.805.334h-9.11V68.25c0 .306-.114.57-.34.794a1.108 1.108 0 0 1-.805.334h-8.729c-.31 0-.579-.112-.805-.334a1.078 1.078 0 0 1-.339-.794V49.107h-9.11c-.311 0-.58-.111-.806-.334a1.078 1.078 0 0 1-.339-.794V41.25c0-.306.114-.571.34-.794.226-.223.494-.334.805-.334h29.238Z" fill="#fff"/></g><defs><clipPath id="a"><path fill="#fff" transform="translate(20.51 40.122)" d="M0 0h68.816v29.757H0z"/></clipPath></defs></svg>