<svg width="897" height="200" viewBox="0 0 897 200" fill="none" xmlns="http://www.w3.org/2000/svg"><path d="M305.15 110.452c0 16.537-9.279 31.149-42.944 31.149-7.803 0-9.02-.783-9.02 2.833v8.67c0 9.178 9.02 6.196 9.02 12.793 0 2.327-1.576 4.526-5.368 4.526-3.532 0-7.563-.381-16.703-.381-8.421 0-11.474.381-14.767.381-3.792 0-5.368-2.199-5.368-4.526 0-5.815 7.084-3.489 7.084-12.793v-58.68c0-9.305-7.084-6.979-7.084-12.794 0-2.326 2.195-4.525 5.987-4.525 3.292 0 5.727.38 13.909.38 5.727 0 12.432-1.035 20.734-1.035 30.133 0 44.52 13.448 44.52 34.002Zm-28.416-.655c0-13.576-6.705-20.808-16.583-20.808-6.945 0-6.945 3.616-6.945 5.815v29.224c0 3.997 2.554 5.16 6.945 5.16 10.716 0 16.583-6.725 16.583-19.391Zm196.859 4.145c0 4.652-2.314 10.594-5.487 17.847-1.218 2.833-2.934 4.525-5.249 4.525-2.195 0-3.791-1.945-4.889-3.997-2.674-5.032-5.128-8.268-8.9-8.268-4.031 0-9.639 4.526-9.639 18.228v11.631c0 8.923 8.302 6.195 8.302 12.285 0 2.073-1.457 4.272-5.129 4.272-3.412 0-6.705-.381-15.006-.381-7.444 0-10.377.381-13.41.381-3.652 0-5.129-2.072-5.129-4.272 0-5.561 6.705-3.362 6.705-12.285v-24.043c0-8.395-7.563-5.308-7.563-11.631 0-3.362 3.791-5.308 14.029-9.96 9.399-4.271 11.095-4.652 12.572-4.652 3.652 0 4.629 3.109 4.629 7.359v9.051c3.173-9.178 11.714-16.938 20.974-16.938 7.962-.022 13.19 5.032 13.19 10.848Zm67.526 42.524c0 2.453-1.717 5.308-3.413 7.105-4.27 4.526-10.377 8.269-20.494 8.269-10.976 0-19.876-6.979-19.876-15.374 0-2.706.479-12.666.479-21.59v-18.608h-5.248c-3.054 0-5.249-1.946-5.249-4.779 0-3.109 1.836-4.653 4.87-6.598 8.181-5.18 12.572-8.924 17.441-15.775 4.031-5.688 5.488-8.268 8.182-8.268 2.314 0 3.651 1.544 3.651 5.561v18.228h14.628c2.315 0 3.652 1.163 3.652 3.997 0 1.036-.24 2.833-.359 3.743-.36 2.58-1.457 3.869-3.912 3.869h-14.029v28.442c0 10.214 2.934 12.54 6.466 12.54 1.457 0 2.934-.381 5.727-2.834.858-.782 2.076-1.945 3.792-1.945 2.474 0 3.692 1.945 3.692 4.017Zm64.971-48.467c0 1.671-.24 3.49-.36 4.399-.359 2.58-1.456 3.87-3.911 3.87h-11.474v37.619c0 8.923 8.66 5.942 8.66 12.285 0 2.073-1.456 4.272-5.128 4.272-3.413 0-6.945-.381-15.366-.381-7.443 0-10.377.381-13.41.381-3.652 0-5.129-2.072-5.129-4.272 0-5.561 6.705-3.362 6.705-12.285v-37.619h-7.802c-2.435 0-3.532-1.29-3.912-3.87-.119-.909-.359-2.707-.359-4.399 0-2.199 1.337-3.362 3.652-3.362h6.346c-1.576-3.616-3.412-7.507-3.412-13.956 0-11.757 9.518-20.681 26.102-20.681 13.17 0 23.906 6.725 23.906 11.63 0 2.834-1.836 6.344-6.106 11.884-1.577 2.073-3.293 3.49-5.129 3.49-2.075 0-3.532-1.417-4.031-3.743-1.716-8.015-2.075-13.83-7.443-13.83-4.151 0-6.107 3.997-6.107 8.67 0 8.014 3.054 12.011 5.368 16.536h14.648c2.355 0 3.692 1.163 3.692 3.362Zm12.148 30.493c0-21.061 16.464-36.709 40.251-36.709s37.077 15.5 37.077 34.51c0 21.59-17.201 36.583-40.13 36.583-23.887 0-37.198-15.5-37.198-34.384Zm51.725 3.616c0-10.848-5.368-28.441-15.485-28.441-7.085 0-10.617 6.069-10.617 19.01 0 10.594 5.249 28.315 15.486 28.315 7.204 0 10.616-6.09 10.616-18.884Zm43.521 24.043c0-5.561 6.705-3.362 6.705-12.286V96.982c0-8.395-7.563-5.307-7.563-11.63 0-3.362 3.772-5.308 14.029-9.96 9.399-4.271 11.095-4.652 12.572-4.652 3.652 0 4.629 3.109 4.629 7.359v75.745c0 8.924 6.825 6.725 6.825 12.286 0 2.072-1.456 4.272-5.128 4.272-3.054 0-6.107-.381-13.55-.381-7.444 0-10.377.381-13.41.381-3.652.021-5.109-2.052-5.109-4.251Zm57.332 0c0-5.561 6.705-3.362 6.705-12.286v-24.043c0-8.395-7.563-5.307-7.563-11.63 0-3.362 3.792-5.308 14.029-9.96 9.399-4.271 11.095-4.652 12.572-4.652 3.652 0 4.63 3.108 4.63 7.359v42.905c0 8.924 6.825 6.725 6.825 12.286 0 2.072-1.457 4.272-5.129 4.272-3.053 0-6.106-.381-13.53-.381-7.443 0-10.377.381-13.41.381-3.672.021-5.129-2.052-5.129-4.251Zm2.934-77.416c0-7.633 7.802-15.648 17.94-15.648 6.226 0 11.355 4.145 11.355 9.96 0 7.507-8.541 14.993-18.539 14.993-6.865 0-10.756-4.018-10.756-9.305Zm45.922 49.757c0-21.061 16.464-36.709 40.251-36.709S897 117.283 897 136.293c0 21.59-17.202 36.583-40.131 36.583-23.886 0-37.197-15.5-37.197-34.384Zm51.725 3.616c0-10.848-5.368-28.441-15.485-28.441-7.085 0-10.617 6.069-10.617 19.01 0 10.594 5.248 28.315 15.486 28.315 7.204 0 10.616-6.09 10.616-18.884Z" fill="#000"/><path d="M392.028 139.295c1.937 1.775 1.383 4.97-1.047 5.975l-4.565 1.894 2.272 4.378c1.206 2.327-.415 5.128-3.043 5.246l-4.92.217.632 4.871c.336 2.603-2.134 4.694-4.664 3.905l-4.703-1.479-1.067 4.812c-.573 2.564-3.617 3.668-5.711 2.071l-3.913-2.998-2.648 4.142c-1.423 2.228-4.664 2.228-6.087 0l-2.648-4.142-3.913 2.998c-2.094 1.597-5.138.493-5.711-2.071l-1.067-4.812-4.703 1.479c-2.51.789-5-1.282-4.664-3.905l.633-4.871-4.921-.217c-2.628-.118-4.249-2.919-3.043-5.246l2.272-4.378-4.565-1.894c-2.43-1.005-3.003-4.2-1.067-5.975l3.636-3.313-3.636-3.333c-1.936-1.775-1.383-4.97 1.067-5.976l4.565-1.893-2.272-4.379c-1.226-2.327.395-5.127 3.043-5.245l4.921-.217-.633-4.872c-.336-2.603 2.154-4.693 4.664-3.905l4.703 1.48 1.067-4.813c.573-2.563 3.617-3.668 5.711-2.07l3.913 2.997 2.648-4.141c1.423-2.229 4.664-2.229 6.087 0l2.648 4.141 3.913-2.997c2.094-1.598 5.138-.493 5.711 2.07l1.067 4.813 4.703-1.48c2.51-.788 5 1.282 4.664 3.905l-.632 4.872 4.92.217c2.628.118 4.249 2.918 3.043 5.245l-2.272 4.379 4.565 1.893c2.43 1.006 3.003 4.201 1.047 5.976l-3.636 3.333 3.636 3.313Zm-204.827-39.284 9.668-8.756c5.164-4.68 3.67-13.068-2.813-15.712l-12.129-4.963 6.065-11.486c3.23-6.133-1.099-13.502-8.086-13.805l-13.096-.585 1.692-12.83c.9-6.848-5.692-12.331-12.393-10.25l-12.503 3.879-2.857-12.635c-1.516-6.762-9.624-9.666-15.205-5.462l-10.415 7.867-7.054-10.9c-3.779-5.83-12.415-5.83-16.172 0l-7.054 10.9-10.415-7.867c-5.56-4.204-13.69-1.278-15.205 5.462l-2.835 12.635-12.525-3.88c-6.68-2.08-13.293 3.403-12.393 10.251l1.692 12.83-13.096.585c-7.01.303-11.316 7.672-8.086 13.805l6.065 11.486-12.13 4.963C-.56 78.187-2.055 86.574 3.11 91.255l9.668 8.756-9.668 8.734c-5.164 4.681-3.67 13.068 2.812 15.712l12.13 4.963-6.065 11.486c-3.23 6.133 1.077 13.502 8.086 13.805l13.096.585-1.692 12.83c-.9 6.848 5.714 12.331 12.393 10.251l12.525-3.88 2.857 12.635c1.516 6.762 9.624 9.666 15.205 5.462l10.415-7.867 7.054 10.901c3.78 5.829 12.415 5.829 16.172 0l7.054-10.901 10.415 7.867c5.559 4.204 13.667 1.278 15.205-5.462l2.857-12.635 12.503 3.88c6.701 2.08 13.315-3.403 12.393-10.251l-1.692-12.83 13.096-.585c7.009-.303 11.316-7.672 8.086-13.805l-6.065-11.486 12.129-4.963c6.483-2.644 7.977-11.031 2.813-15.712l-9.69-8.734Z" fill="#FD7E14"/><path d="M149.774 60.173v13.172h-.086c-11.807 0-21.38 9.443-21.38 21.087v38.767c0 9.575-7.871 17.338-17.58 17.338H70.437c-.563.052-1.13.08-1.703.08-10.224 0-18.508-8.17-18.508-18.254 0-6.42 3.358-12.061 8.438-15.312a12.593 12.593 0 0 0-2.848 7.977c0 7.041 5.783 12.745 12.913 12.745 7.14 0 12.922-5.704 12.922-12.745v-5.889l-.702-.493h-.005l-1.963-1.376-1.13-.793-5.052-3.54-.784-.545 2.266-1.585h.004l7.361-5.167-9.636-6.748 4.998-3.506 4.638-3.246-9.636-6.747 9.636-6.757V77.52c0-9.576 7.87-17.339 17.58-17.339h50.548v-.009Z" stroke="#FBF3E8" stroke-width="3" stroke-miterlimit="10" stroke-linecap="round" stroke-linejoin="round"/><path d="M127.86 98.247c-1.905-1.03-4.517-.28-5.643 1.623-.664 1.119-.818 2.481-.933 3.791-.934 10.624-.313 21.594-3.676 31.678-.76 2.277-1.722 4.498-3.079 6.448-3.214 4.631-8.4 7.416-13.716 8.83" stroke="#FBF3E8" stroke-width="3" stroke-miterlimit="10" stroke-linecap="round" stroke-linejoin="round"/><path d="M128.308 105.175c2.02-1.599 4.604-2.662 7.317-3.018.611-.081 1.265-.119 1.814.123.904.399 1.188 1.405 1.154 2.282-.086 2.34-1.65 4.442-3.353 6.269a41.21 41.21 0 0 1-6.923 5.917m-22.823-12.522c2.021-1.6 4.604-2.662 7.318-3.018.611-.081 1.265-.119 1.813.123.905.399 1.189 1.405 1.155 2.282-.087 2.34-1.65 4.442-3.353 6.269a41.25 41.25 0 0 1-6.923 5.917m-1.718-44.703c-1.409 1.841-3.81 3.15-6.422 3.502" stroke="#FBF3E8" stroke-width="3" stroke-miterlimit="10" stroke-linecap="round"/><path d="M149.774 60.173v13.172h-.086c-11.807 0-21.38 9.442-21.38 21.087v38.766c0 9.576-7.871 17.339-17.58 17.339H70.437c-.563.052-1.13.08-1.703.08-10.224 0-18.508-8.171-18.508-18.254 0-6.42 3.358-12.062 8.438-15.312a12.59 12.59 0 0 0-2.848 7.976c0 7.042 5.783 12.745 12.913 12.745 7.14 0 12.922-5.703 12.922-12.745v-5.888l-.702-.494h-.005l-1.963-1.376-1.13-.792-5.052-3.54-.784-.546 2.266-1.584h.004l7.361-5.168-9.636-6.747 4.998-3.507 4.638-3.245-9.636-6.748 9.636-6.757V77.52c0-9.575 7.87-17.338 17.58-17.338h50.548v-.01Z" stroke="#FBF3E8" stroke-width="3" stroke-miterlimit="10" stroke-linecap="round" stroke-linejoin="round"/><path d="M127.86 98.247c-1.905-1.03-4.517-.28-5.643 1.622-.664 1.12-.818 2.482-.933 3.792-.934 10.624-.313 21.594-3.676 31.677-.76 2.278-1.722 4.499-3.079 6.449-3.214 4.631-8.4 7.416-13.716 8.83" stroke="#FBF3E8" stroke-width="3" stroke-miterlimit="10" stroke-linecap="round" stroke-linejoin="round"/><path d="M128.308 105.174c2.02-1.599 4.604-2.662 7.317-3.017.611-.081 1.265-.119 1.814.123.904.398 1.188 1.404 1.154 2.282-.086 2.339-1.65 4.442-3.353 6.268a41.117 41.117 0 0 1-6.923 5.917m-22.823-12.522c2.021-1.599 4.604-2.662 7.318-3.018.611-.08 1.265-.118 1.813.124.905.398 1.189 1.404 1.155 2.282-.087 2.339-1.65 4.441-3.353 6.268a41.157 41.157 0 0 1-6.923 5.917m-1.718-44.702c-1.409 1.84-3.81 3.15-6.422 3.501M81.65 77.516v41.623m9.29-49.699a1503.991 1503.991 0 0 1-18.574-20.081" stroke="#FBF3E8" stroke-width="3" stroke-miterlimit="10" stroke-linecap="round"/><path d="M84.639 62.726c1.669-1.704 2.03-4.513.846-6.577-.375-.65-.875-1.215-1.37-1.78-.795-.891-1.584-1.788-2.377-2.68l-.991-1.12m56.427 19.957c-.957-.132-1.886.518-2.357 1.348-.472.83-.582 1.808-.669 2.757a87.87 87.87 0 0 0-.033 15.55m11.132-16.3c.486 1.998.452 4.08.414 6.135l-.188 10.017" stroke="#FBF3E8" stroke-width="3" stroke-miterlimit="10" stroke-linecap="round"/></svg>