<svg width="884" height="200" viewBox="0 0 884 200" fill="none" xmlns="http://www.w3.org/2000/svg"><path d="m187.201 100.011 9.668-8.756c5.164-4.68 3.67-13.068-2.813-15.712l-12.129-4.963 6.065-11.486c3.23-6.133-1.099-13.502-8.086-13.805l-13.096-.585 1.692-12.83c.9-6.848-5.692-12.331-12.393-10.25l-12.503 3.879-2.857-12.635c-1.516-6.762-9.624-9.666-15.205-5.462l-10.415 7.867-7.054-10.9c-3.779-5.83-12.415-5.83-16.172 0l-7.054 10.9-10.415-7.867c-5.56-4.204-13.69-1.278-15.205 5.462l-2.835 12.635-12.525-3.88c-6.68-2.08-13.293 3.403-12.393 10.251l1.692 12.83-13.096.585c-7.01.303-11.316 7.672-8.086 13.805l6.065 11.486-12.13 4.963C-.56 78.187-2.055 86.574 3.11 91.255l9.668 8.756-9.668 8.734c-5.164 4.681-3.67 13.068 2.812 15.712l12.13 4.963-6.065 11.486c-3.23 6.133 1.077 13.502 8.086 13.805l13.096.585-1.692 12.83c-.9 6.848 5.714 12.331 12.393 10.251l12.525-3.88 2.857 12.635c1.516 6.762 9.624 9.666 15.205 5.462l10.415-7.867 7.054 10.901c3.78 5.829 12.415 5.829 16.172 0l7.054-10.901 10.415 7.867c5.559 4.204 13.667 1.278 15.205-5.462l2.857-12.635 12.503 3.88c6.701 2.08 13.315-3.403 12.393-10.251l-1.692-12.83 13.096-.585c7.009-.303 11.316-7.672 8.086-13.805l-6.065-11.486 12.129-4.963c6.483-2.644 7.977-11.031 2.813-15.712l-9.69-8.734Z" fill="#FD7E14"/><path d="M149.774 60.173v13.172h-.086c-11.807 0-21.38 9.443-21.38 21.087v38.767c0 9.575-7.871 17.338-17.58 17.338H70.437c-.563.052-1.13.08-1.703.08-10.224 0-18.508-8.17-18.508-18.254 0-6.42 3.358-12.061 8.438-15.312a12.593 12.593 0 0 0-2.848 7.977c0 7.041 5.783 12.745 12.913 12.745 7.14 0 12.922-5.704 12.922-12.745v-5.889l-.702-.493h-.005l-1.963-1.376-1.13-.793-5.052-3.54-.784-.545 2.266-1.585h.004l7.361-5.167-9.636-6.748 4.998-3.506 4.638-3.246-9.636-6.747 9.636-6.757V77.52c0-9.576 7.87-17.339 17.58-17.339h50.548v-.009Z" stroke="#FBF3E8" stroke-width="3" stroke-miterlimit="10" stroke-linecap="round" stroke-linejoin="round"/><path d="M127.86 98.247c-1.905-1.03-4.517-.28-5.643 1.623-.664 1.119-.818 2.481-.933 3.791-.934 10.624-.313 21.594-3.676 31.678-.76 2.277-1.722 4.498-3.079 6.448-3.214 4.631-8.4 7.416-13.716 8.83" stroke="#FBF3E8" stroke-width="3" stroke-miterlimit="10" stroke-linecap="round" stroke-linejoin="round"/><path d="M128.308 105.175c2.02-1.599 4.604-2.662 7.317-3.018.611-.081 1.265-.119 1.814.123.904.399 1.188 1.405 1.154 2.282-.086 2.34-1.65 4.442-3.353 6.269a41.21 41.21 0 0 1-6.923 5.917m-22.823-12.522c2.021-1.6 4.604-2.662 7.318-3.018.611-.081 1.265-.119 1.813.123.905.399 1.189 1.405 1.155 2.282-.087 2.34-1.65 4.442-3.353 6.269a41.25 41.25 0 0 1-6.923 5.917m-1.718-44.703c-1.409 1.841-3.81 3.15-6.422 3.502" stroke="#FBF3E8" stroke-width="3" stroke-miterlimit="10" stroke-linecap="round"/><path d="M149.774 60.173v13.172h-.086c-11.807 0-21.38 9.442-21.38 21.087v38.766c0 9.576-7.871 17.339-17.58 17.339H70.437c-.563.052-1.13.08-1.703.08-10.224 0-18.508-8.171-18.508-18.254 0-6.42 3.358-12.062 8.438-15.312a12.59 12.59 0 0 0-2.848 7.976c0 7.042 5.783 12.745 12.913 12.745 7.14 0 12.922-5.703 12.922-12.745v-5.888l-.702-.494h-.005l-1.963-1.376-1.13-.792-5.052-3.54-.784-.546 2.266-1.584h.004l7.361-5.168-9.636-6.747 4.998-3.507 4.638-3.245-9.636-6.748 9.636-6.757V77.52c0-9.575 7.87-17.338 17.58-17.338h50.548v-.01Z" stroke="#FBF3E8" stroke-width="3" stroke-miterlimit="10" stroke-linecap="round" stroke-linejoin="round"/><path d="M127.86 98.247c-1.905-1.03-4.517-.28-5.643 1.622-.664 1.12-.818 2.482-.933 3.792-.934 10.624-.313 21.594-3.676 31.677-.76 2.278-1.722 4.499-3.079 6.449-3.214 4.631-8.4 7.416-13.716 8.83" stroke="#FBF3E8" stroke-width="3" stroke-miterlimit="10" stroke-linecap="round" stroke-linejoin="round"/><path d="M128.308 105.174c2.02-1.599 4.604-2.662 7.317-3.017.611-.081 1.265-.119 1.814.123.904.398 1.188 1.404 1.154 2.282-.086 2.339-1.65 4.442-3.353 6.268a41.117 41.117 0 0 1-6.923 5.917m-22.823-12.522c2.021-1.599 4.604-2.662 7.318-3.018.611-.08 1.265-.118 1.813.124.905.398 1.189 1.404 1.155 2.282-.087 2.339-1.65 4.441-3.353 6.268a41.157 41.157 0 0 1-6.923 5.917m-1.718-44.702c-1.409 1.84-3.81 3.15-6.422 3.501m-15.713 2.919v41.623m9.29-49.699a1503.334 1503.334 0 0 1-18.575-20.081" stroke="#FBF3E8" stroke-width="3" stroke-miterlimit="10" stroke-linecap="round"/><path d="M84.638 62.726c1.67-1.704 2.03-4.513.847-6.577-.375-.65-.875-1.215-1.37-1.78-.795-.891-1.584-1.788-2.377-2.68l-.992-1.12m56.428 19.957c-.957-.132-1.886.518-2.357 1.348-.472.83-.582 1.808-.669 2.757a87.87 87.87 0 0 0-.033 15.55m11.132-16.3c.486 1.998.452 4.08.414 6.135l-.188 10.017" stroke="#FBF3E8" stroke-width="3" stroke-miterlimit="10" stroke-linecap="round"/><path d="M311.14 111.725c0 16.718-9.92 31.46-45.965 31.46-8.359 0-9.663-.79-9.663 2.866v8.754c0 9.268 9.663 6.264 9.663 12.924 0 2.352-1.7 4.565-5.751 4.565-3.794 0-8.102-.395-17.884-.395-9.011 0-12.272.395-15.789.395-4.051 0-5.751-2.213-5.751-4.565 0-5.869 7.569-3.518 7.569-12.924V95.52c0-9.406-7.569-7.055-7.569-12.924 0-2.351 2.352-4.565 6.403-4.565 3.517 0 6.146.395 14.88.395 6.146 0 13.319-1.047 22.192-1.047 32.271.02 47.665 13.596 47.665 34.346Zm-30.413-.652c0-13.715-7.173-21.027-17.765-21.027-7.45 0-7.45 3.656-7.45 5.87v29.503c0 4.052 2.746 5.218 7.45 5.218 11.501.019 17.765-6.759 17.765-19.564Zm116.337 4.189c0 4.704-2.49 10.711-5.87 18.023-1.304 2.865-3.142 4.565-5.612 4.565-2.351 0-4.051-1.957-5.217-4.051-2.865-5.099-5.494-8.359-9.525-8.359-4.308 0-10.315 4.564-10.315 18.417v11.758c0 9.012 8.872 6.265 8.872 12.411 0 2.094-1.561 4.308-5.474 4.308-3.655 0-7.173-.395-16.066-.395-7.964 0-11.106.395-14.366.395-3.913 0-5.474-2.095-5.474-4.308 0-5.613 7.173-3.399 7.173-12.411v-24.287c0-8.477-8.102-5.355-8.102-11.758 0-3.399 4.051-5.355 15.019-10.058 10.058-4.308 11.876-4.704 13.457-4.704 3.913 0 4.961 3.143 4.961 7.451v9.129c3.399-9.268 12.528-17.113 22.449-17.113 8.477.02 14.09 5.098 14.09 10.987Z" fill="#000"/><path d="M483.698 139.075c1.937 1.778 1.384 4.98-1.047 5.988l-4.565 1.897 2.273 4.387c1.205 2.332-.415 5.138-3.044 5.256l-4.92.218.632 4.881c.336 2.608-2.134 4.703-4.664 3.913l-4.703-1.482-1.067 4.821c-.573 2.569-3.616 3.676-5.711 2.075l-3.913-3.003-2.648 4.15c-1.423 2.233-4.664 2.233-6.087 0l-2.648-4.15-3.912 3.003c-2.095 1.601-5.138.494-5.712-2.075l-1.067-4.821-4.703 1.482c-2.51.79-4.999-1.285-4.664-3.913l.633-4.881-4.921-.218c-2.628-.118-4.249-2.924-3.043-5.256l2.272-4.387-4.564-1.897c-2.431-1.008-3.004-4.21-1.068-5.988l3.637-3.32-3.637-3.34c-1.936-1.778-1.383-4.98 1.068-5.988l4.564-1.897-2.272-4.387c-1.225-2.332.395-5.138 3.043-5.256l4.921-.218-.633-4.881c-.335-2.608 2.154-4.703 4.664-3.913l4.703 1.483 1.067-4.822c.574-2.57 3.617-3.676 5.712-2.075l3.912 3.004 2.648-4.15c1.423-2.233 4.664-2.233 6.087 0l2.648 4.15 3.913-3.004c2.095-1.6 5.138-.494 5.711 2.075l1.067 4.822 4.703-1.483c2.51-.79 5 1.285 4.664 3.913l-.632 4.881 4.92.218c2.629.118 4.249 2.924 3.044 5.256l-2.273 4.387 4.565 1.897c2.431 1.008 3.004 4.21 1.047 5.988l-3.636 3.34 3.636 3.32Z" fill="#FD7E14"/><path d="M517.965 170.614v-39.305c0-8.478-8.102-5.356-8.102-11.759 0-3.399 4.169-5.355 15.137-10.058 10.059-4.308 11.758-4.704 13.319-4.704 3.913 0 4.96 3.143 4.96 7.451v54.047c0 17.628-16.836 31.204-33.812 31.204-7.568 0-10.454-2.747-10.454-8.754 0-5.356 1.048-13.063 6.008-13.063 1.561 0 2.865 1.048 3.913 2.747 2.608 4.308 4.822 7.707 7.45 7.707 1.561 0 2.608-1.166 2.608-3.517.02-2.728-1.027-6.127-1.027-11.996Zm-4.051-80.825c0-7.707 8.359-15.789 19.188-15.789 6.66 0 12.134 4.17 12.134 10.059 0 7.568-9.13 15.137-19.841 15.137-7.292 0-11.481-4.051-11.481-9.406Zm124.814 64.897c0 1.166-.396 2.214-1.166 3.656-3.913 6.66-16.442 16.462-35.512 16.462-21.935 0-36.954-14.624-36.954-35.117 0-22.725 18.28-36.697 38.772-36.697 20.75 0 32.389 14.229 32.389 26.896 0 4.565-1.442 5.098-4.169 6.007l-36.697 11.758c4.169 6.403 10.71 11.225 19.188 11.225 5.612 0 10.177-1.838 15.414-5.355 2.866-1.957 3.794-2.609 5.217-2.609 2.49-.02 3.518 2.589 3.518 3.774Zm-48.298-24.148c0 2.213.257 4.446.791 6.66l16.58-5.751c2.095-.652 3.399-1.818 3.399-4.308 0-5.751-4.703-12.41-10.711-12.41-6.007 0-10.059 5.75-10.059 15.809Zm64.502 9.782c0-23.102 18.793-37.211 38.515-37.211 16.976 0 29.761 10.572 29.761 18.279 0 3.518-2.608 8.221-10.71 13.576-2.49 1.7-3.913 1.957-5.099 1.957-2.865 0-4.565-2.214-5.098-4.703-1.443-7.174-3.261-19.189-11.62-19.189-6.126 0-9.664 6.403-9.664 16.58 0 18.418 11.62 28.457 22.45 28.457 7.963 0 13.062-4.051 16.836-6.798 1.443-1.048 2.214-1.443 3.261-1.443 2.095 0 3.261 1.956 3.261 3.518 0 1.166-.396 2.49-1.048 4.051-3.142 7.173-14.109 17.37-33.812 17.37-21.105.02-37.033-13.299-37.033-34.444Zm141.928 17.884c0 2.49-1.838 5.355-3.656 7.173-4.565 4.565-11.106 8.36-21.935 8.36-11.759 0-21.284-7.055-21.284-15.533 0-2.747.514-12.786.514-21.797v-18.793h-5.612c-3.261 0-5.612-1.957-5.612-4.822 0-3.142 1.956-4.703 5.217-6.66 8.754-5.217 13.457-9.011 18.674-15.928 4.308-5.75 5.869-8.359 8.755-8.359 2.49 0 3.912 1.561 3.912 5.612v18.418h15.671c2.49 0 3.913 1.166 3.913 4.051 0 1.048-.257 2.866-.395 3.795-.395 2.608-1.561 3.912-4.17 3.912h-15.019v28.734c0 10.315 3.143 12.667 6.917 12.667 1.561 0 3.142-.395 6.146-2.866.909-.79 2.213-1.956 4.051-1.956 2.609-.059 3.913 1.917 3.913 3.992Zm22.982 9.664-4.446-9.802c-1.699-3.656-3.399-6.403-3.399-9.268 0-3.004 2.095-4.447 4.051-4.447 1.957 0 3.399 1.048 5.612 3.142 7.312 7.055 17.628 14.881 29.248 14.881 5.75 0 9.011-2.609 9.011-5.474 0-4.565-8.221-5.355-17.489-7.45-15.137-3.261-29.247-9.407-29.247-23.635 0-12.924 12.133-21.54 27.152-21.54 7.569 0 13.576 2.095 16.185 2.095 2.865 0 2.865-2.609 6.264-2.609 3.261 0 4.96 2.609 6.798 5.355l5.356 8.103c1.956 3.003 3.655 5.869 3.655 8.22 0 2.352-1.699 3.913-3.517 3.913-2.213 0-3.656-1.561-5.751-3.26-7.707-6.126-17.232-11.106-25.077-11.106-4.051 0-7.055 1.699-7.055 4.446 0 4.308 7.312 5.217 16.442 7.45 15.414 3.518 30.156 8.359 30.156 23.378 0 15.276-15.019 23.101-32.765 23.101-9.268 0-14.367-2.094-17.232-2.094-3.794 0-4.051 3.517-7.569 3.517-3.26 0-4.96-3.656-6.383-6.916Z" fill="#000"/></svg>