<svg width="943" height="200" viewBox="0 0 943 200" fill="none" xmlns="http://www.w3.org/2000/svg"><path d="M319.932 165.964c0 2.202-1.673 3.874-4.531 3.874-4.404 0-11.264-.381-19.669-.381-7.643 0-13.338.381-16.959.381-4.149 0-6.478-1.545-6.478-4.404 0-5.314 5.695-3.112 5.695-8.278 0-2.583-2.456-5.441-4.277-7.897l-5.822-7.77c-2.456-3.239-4.15-4.404-7.114-4.404h-3.112c-1.673 0-2.456.91-2.456 3.112v12.301c0 9.316 7.77 6.987 7.77 12.809 0 2.329-1.673 4.531-5.695 4.531-3.494 0-6.987-.381-15.922-.381-8.934 0-12.173.381-15.667.381-4.022 0-5.695-2.202-5.695-4.531 0-5.822 7.516-3.493 7.516-12.809V93.746c0-9.316-7.516-6.987-7.516-12.809 0-2.202 1.546-4.53 6.733-4.53 1.947 0 7.367.38 12.936.38 5.166 0 15.794-1.037 24.199-1.037 31.568 0 46.854 12.682 46.854 31.716 0 12.809-6.86 22.124-18.632 26.274l11.772 15.011c9.464 12.026 16.07 10.861 16.07 17.213Zm-39.338-58.117c0-14.1-8.024-19.542-18.631-19.542-3.621 0-6.733 1.037-6.733 5.822v27.82c0 3.748 2.71 4.531 7.241 4.531 12.301.021 18.123-5.42 18.123-18.631Zm120.489 44.524c0 1.165-.381 2.202-1.164 3.621-3.875 6.605-16.303 16.302-35.209 16.302-21.744 0-36.627-14.503-36.627-34.807 0-22.526 18.123-36.373 38.427-36.373 20.579 0 32.096 14.101 32.096 26.656 0 4.53-1.418 5.038-4.149 5.949l-36.374 11.644c4.15 6.352 10.607 11.137 19.034 11.137 5.568 0 10.099-1.821 15.265-5.314 2.837-1.948 3.747-2.583 5.187-2.583 2.477.021 3.514 2.604 3.514 3.768Zm-47.891-23.945c0 2.202.254 4.404.784 6.605l16.429-5.695c2.075-.656 3.367-1.82 3.367-4.276 0-5.696-4.658-12.301-10.608-12.301-5.949 0-9.972 5.716-9.972 15.667Zm68.725 37.029-4.404-9.696c-1.673-3.621-3.367-6.352-3.367-9.189 0-2.985 2.075-4.404 4.023-4.404 1.948 0 3.366 1.038 5.568 3.113 7.241 6.986 17.467 14.756 28.985 14.756 5.695 0 8.934-2.582 8.934-5.441 0-4.53-8.151-5.314-17.34-7.368-15.01-3.239-28.984-9.315-28.984-23.416 0-12.809 12.026-21.362 26.91-21.362 7.516 0 13.465 2.075 16.048 2.075 2.837 0 2.837-2.583 6.203-2.583 3.24 0 4.912 2.583 6.733 5.314l5.314 8.024c1.948 2.985 3.621 5.822 3.621 8.151 0 2.329-1.673 3.875-3.494 3.875-2.202 0-3.62-1.546-5.695-3.24-7.643-6.076-17.086-11.009-24.856-11.009-4.023 0-6.987 1.673-6.987 4.404 0 4.276 7.241 5.166 16.303 7.368 15.265 3.493 29.895 8.278 29.895 23.162 0 15.138-14.884 22.908-32.478 22.908-9.189 0-14.228-2.075-17.086-2.075-3.747 0-4.023 3.493-7.516 3.493-3.239-.021-4.912-3.641-6.33-6.86Zm164.992-5.314c0 4.277-3.747 5.442-16.704 8.152-8.533 1.82-11.391 2.201-13.063 2.201-3.367 0-5.039-2.583-5.039-6.076v-6.351h-.127c-4.15 6.986-12.026 12.936-22.781 12.936-12.682 0-22.781-8.152-22.781-24.729v-18.377c0-8.406-9.189-6.352-9.189-12.047 0-3.875 3.748-5.441 15.794-9.316 9.972-3.239 12.026-3.62 13.466-3.62 4.149 0 5.039 3.62 5.039 7.643v27.82c0 10.353 4.149 14.227 9.972 14.227 4.911 0 10.607-3.239 10.607-15.794v-8.935c0-8.405-10.607-6.076-10.607-12.046 0-3.875 4.022-5.315 17.212-9.443 9.57-2.985 12.301-3.494 13.593-3.494 4.404 0 4.912 4.277 4.912 7.644v36.373c0 8.702 9.696 8.045 9.696 13.232Zm143.779 5.569c0 2.329-2.202 4.001-5.695 4.001-3.366 0-6.479-.381-14.101-.381-8.151 0-11.136.381-14.502.381-4.15 0-5.95-2.075-5.95-4.277 0-4.911 6.987-4.022 6.987-10.226 0-1.672-.381-4.657-.783-7.516l-1.821-13.465c-.508-4.15-1.821-13.465-9.062-13.465-4.403 0-8.68 3.493-8.68 15.794v16.705c0 8.934 8.024 6.732 8.024 12.3 0 2.075-1.673 4.277-5.441 4.277-3.494 0-6.86-.381-15.138-.381-7.77 0-11.01.381-14.228.381-3.747 0-5.441-2.075-5.441-4.277 0-5.568 7.114-3.366 7.114-12.3v-19.034c0-9.189-2.837-13.465-9.189-13.465-4.53 0-10.099 3.112-10.099 15.794v16.705c0 8.934 7.241 6.732 7.241 12.3 0 2.075-1.545 4.277-5.441 4.277-3.239 0-6.479-.381-14.376-.381-7.897 0-11.009.381-14.227.381-3.875 0-5.442-2.075-5.442-4.277 0-5.568 7.114-3.366 7.114-12.3v-24.073c0-8.405-8.024-5.314-8.024-11.644 0-3.367 4.023-5.315 14.884-9.972 9.972-4.277 11.771-4.658 13.338-4.658 3.875 0 4.912 3.112 4.912 7.367v5.039h.127c4.023-6.859 12.301-12.936 22.781-12.936 8.935 0 16.049 4.531 19.415 12.936 3.874-6.732 10.861-12.936 21.489-12.936 12.682 0 20.325 8.681 22.527 25.11l3.239 24.073c1.588 11.157 8.448 8.32 8.448 14.143Zm82.825-13.339c0 1.165-.381 2.202-1.165 3.621-3.874 6.605-16.302 16.302-35.208 16.302-21.744 0-36.628-14.503-36.628-34.807 0-22.526 18.123-36.373 38.427-36.373 20.579 0 32.097 14.101 32.097 26.656 0 4.53-1.419 5.038-4.15 5.949l-36.373 11.644c4.149 6.352 10.607 11.137 19.033 11.137 5.568 0 10.099-1.821 15.265-5.314 2.837-1.948 3.748-2.583 5.187-2.583 2.477.021 3.515 2.604 3.515 3.768Zm-47.891-23.945c0 2.202.254 4.404.783 6.605l16.43-5.695c2.074-.656 3.366-1.82 3.366-4.276 0-5.696-4.658-12.301-10.607-12.301-5.949 0-9.972 5.716-9.972 15.667Z" fill="#000"/><path d="M860.625 170.05c0-18.081 16.154-32.8 32.8-32.8-16.646 0-32.8-15.519-32.8-32.8 0 17.794-15.621 32.8-32.8 32.8 17.179 0 32.8 15.231 32.8 32.8Zm49.2-19.619c0-29.356 10.517-53.156 32.8-53.156-22.283 0-32.8-21.669-32.8-52.275 0 30.606-7.933 52.275-32.8 52.275 25.892 0 32.8 23.8 32.8 53.156Zm-722.624-50.42 9.668-8.756c5.164-4.68 3.67-13.068-2.813-15.712l-12.129-4.963 6.065-11.486c3.23-6.133-1.099-13.502-8.086-13.805l-13.096-.585 1.692-12.83c.9-6.848-5.692-12.331-12.393-10.25l-12.503 3.879-2.857-12.635c-1.516-6.762-9.624-9.666-15.205-5.462l-10.415 7.867-7.054-10.9c-3.779-5.83-12.415-5.83-16.172 0l-7.054 10.9-10.415-7.867c-5.56-4.204-13.69-1.278-15.205 5.462l-2.835 12.635-12.525-3.88c-6.68-2.08-13.293 3.403-12.393 10.251l1.692 12.83-13.096.585c-7.01.303-11.316 7.672-8.086 13.805l6.065 11.486-12.13 4.963C-.56 78.187-2.055 86.574 3.11 91.255l9.668 8.756-9.668 8.734c-5.164 4.681-3.67 13.068 2.812 15.712l12.13 4.963-6.065 11.486c-3.23 6.133 1.077 13.502 8.086 13.805l13.096.585-1.692 12.83c-.9 6.848 5.714 12.331 12.393 10.251l12.525-3.88 2.857 12.635c1.516 6.762 9.624 9.666 15.205 5.462l10.415-7.867 7.054 10.901c3.78 5.829 12.415 5.829 16.172 0l7.054-10.901 10.415 7.867c5.559 4.204 13.667 1.278 15.205-5.462l2.857-12.635 12.503 3.88c6.701 2.08 13.315-3.403 12.393-10.251l-1.692-12.83 13.096-.585c7.009-.303 11.316-7.672 8.086-13.805l-6.065-11.486 12.129-4.963c6.483-2.644 7.977-11.031 2.813-15.712l-9.69-8.734Z" fill="#FD7E14"/><path d="M149.774 60.173v13.172h-.086c-11.807 0-21.38 9.443-21.38 21.087v38.767c0 9.575-7.871 17.338-17.58 17.338H70.437c-.563.052-1.13.08-1.703.08-10.224 0-18.508-8.17-18.508-18.254 0-6.42 3.358-12.061 8.438-15.312a12.593 12.593 0 0 0-2.848 7.977c0 7.041 5.783 12.745 12.913 12.745 7.14 0 12.922-5.704 12.922-12.745v-5.889l-.702-.493h-.005l-1.963-1.376-1.13-.793-5.052-3.54-.784-.545 2.266-1.585h.004l7.361-5.167-9.636-6.748 4.998-3.506 4.638-3.246-9.636-6.747 9.636-6.757V77.52c0-9.576 7.87-17.339 17.58-17.339h50.548v-.009Z" stroke="#FBF3E8" stroke-width="3" stroke-miterlimit="10" stroke-linecap="round" stroke-linejoin="round"/><path d="M127.86 98.247c-1.905-1.03-4.517-.28-5.643 1.623-.664 1.119-.818 2.481-.933 3.791-.934 10.624-.313 21.594-3.676 31.678-.76 2.277-1.722 4.498-3.079 6.448-3.214 4.631-8.4 7.416-13.716 8.83" stroke="#FBF3E8" stroke-width="3" stroke-miterlimit="10" stroke-linecap="round" stroke-linejoin="round"/><path d="M128.308 105.175c2.02-1.599 4.604-2.662 7.317-3.018.611-.081 1.265-.119 1.814.123.904.399 1.188 1.405 1.154 2.282-.086 2.34-1.65 4.442-3.353 6.269a41.21 41.21 0 0 1-6.923 5.917m-22.823-12.522c2.021-1.6 4.604-2.662 7.318-3.018.611-.081 1.265-.119 1.813.123.905.399 1.189 1.405 1.155 2.282-.087 2.34-1.65 4.442-3.353 6.269a41.25 41.25 0 0 1-6.923 5.917m-1.718-44.703c-1.409 1.841-3.81 3.15-6.422 3.502" stroke="#FBF3E8" stroke-width="3" stroke-miterlimit="10" stroke-linecap="round"/><path d="M149.774 60.173v13.172h-.086c-11.807 0-21.38 9.442-21.38 21.087v38.766c0 9.576-7.871 17.339-17.58 17.339H70.437c-.563.052-1.13.08-1.703.08-10.224 0-18.508-8.171-18.508-18.254 0-6.42 3.358-12.062 8.438-15.312a12.59 12.59 0 0 0-2.848 7.976c0 7.042 5.783 12.745 12.913 12.745 7.14 0 12.922-5.703 12.922-12.745v-5.888l-.702-.494h-.005l-1.963-1.376-1.13-.792-5.052-3.54-.784-.546 2.266-1.584h.004l7.361-5.168-9.636-6.747 4.998-3.507 4.638-3.245-9.636-6.748 9.636-6.757V77.52c0-9.575 7.87-17.338 17.58-17.338h50.548v-.01Z" stroke="#FBF3E8" stroke-width="3" stroke-miterlimit="10" stroke-linecap="round" stroke-linejoin="round"/><path d="M127.86 98.247c-1.905-1.03-4.517-.28-5.643 1.622-.664 1.12-.818 2.482-.933 3.792-.934 10.624-.313 21.594-3.676 31.677-.76 2.278-1.722 4.499-3.079 6.449-3.214 4.631-8.4 7.416-13.716 8.83" stroke="#FBF3E8" stroke-width="3" stroke-miterlimit="10" stroke-linecap="round" stroke-linejoin="round"/><path d="M128.308 105.174c2.02-1.599 4.604-2.662 7.317-3.017.611-.081 1.265-.119 1.814.123.904.398 1.188 1.404 1.154 2.282-.086 2.339-1.65 4.442-3.353 6.268a41.117 41.117 0 0 1-6.923 5.917m-22.823-12.522c2.021-1.599 4.604-2.662 7.318-3.018.611-.08 1.265-.118 1.813.124.905.398 1.189 1.404 1.155 2.282-.087 2.339-1.65 4.441-3.353 6.268a41.157 41.157 0 0 1-6.923 5.917m-1.718-44.702c-1.409 1.84-3.81 3.15-6.422 3.501M81.65 77.516v41.623m9.29-49.699a1503.991 1503.991 0 0 1-18.574-20.081" stroke="#FBF3E8" stroke-width="3" stroke-miterlimit="10" stroke-linecap="round"/><path d="M84.639 62.726c1.669-1.704 2.03-4.513.846-6.577-.375-.65-.875-1.215-1.37-1.78-.795-.891-1.584-1.788-2.377-2.68l-.991-1.12m56.427 19.957c-.957-.132-1.886.518-2.357 1.348-.472.83-.582 1.808-.669 2.757a87.87 87.87 0 0 0-.033 15.55m11.132-16.3c.486 1.998.452 4.08.414 6.135l-.188 10.017" stroke="#FBF3E8" stroke-width="3" stroke-miterlimit="10" stroke-linecap="round"/></svg>